<svg width="194" height="175" viewBox="0 0 194 175" fill="none" xmlns="http://www.w3.org/2000/svg">
<rect width="194" height="175" fill="black"/>
<path fill-rule="evenodd" clip-rule="evenodd" d="M160.792 128.58C159.429 128.069 158.202 126.705 158.065 125.173L166.722 123.808C166.859 125.34 166.382 126.872 165.291 127.726C164.132 128.748 162.36 129.09 160.792 128.58ZM145.113 59.2192L133.864 54.4481V65.1805C134.103 64.9252 134.273 64.7117 134.444 64.4982C134.614 64.2847 134.785 64.0712 135.023 63.8158C136.882 62.0428 138.215 62.5691 140.921 63.6376C141.588 63.9014 142.34 64.1982 143.204 64.5015L146.476 65.6977L145.113 59.2192ZM130.819 84.8965C130.225 84.807 129.625 84.7165 129.025 84.6089V84.9513C129.216 85.1636 129.413 85.3841 129.615 85.6097C130.712 86.834 131.942 88.2076 132.978 89.2122L134.341 86.6585C134.546 86.3153 134.683 85.9728 134.546 85.6371C133.378 85.2823 132.113 85.0917 130.819 84.8965ZM122.115 79.4123C121.549 79.4985 120.984 79.5846 120.367 79.669V64.3266C121.39 63.9908 122.48 63.8158 123.639 63.6481V66.887C125.161 66.7242 125.847 66.5548 127.132 66.2379L127.252 66.2085V69.7839L123.98 70.6371L123.843 70.8053V79.1583C123.234 79.2419 122.674 79.3271 122.115 79.4123ZM119.14 92.7941C119.48 92.4508 119.344 91.7659 119.14 91.2551C118.663 90.5762 117.23 90.4079 116.208 90.7444V93.8155C116.548 93.7015 116.895 93.6632 117.238 93.6255C117.925 93.5497 118.594 93.4761 119.14 92.7941ZM110.345 107.451L110.141 107.619L110.55 107.955L116.753 111.705C117.142 111.902 117.511 112.146 117.883 112.392C118.49 112.793 119.103 113.199 119.821 113.412L123.502 110.173L110.345 107.451ZM99.9838 90.5762V98.2441C99.9838 99.7828 99.9838 100.119 100.461 100.798C100.665 101.14 101.142 101.315 102.029 101.14C103.051 100.973 103.392 100.462 103.392 99.6081V92.2833L99.9838 90.5762ZM103.051 74.2122C106.187 71.3161 107.891 66.5445 105.983 62.2836C104.483 58.8765 101.006 57.1695 97.1883 57.5125C94.612 57.6858 92.3734 59.0366 90.1359 60.3866L90.0989 60.4089C86.6905 63.3118 83.5544 67.5727 84.9178 72.68C85.5992 75.5764 88.3947 77.7941 91.1217 78.4731C95.8249 79.3265 99.779 77.4516 103.051 74.2122ZM89.9626 118.015C84.9178 116.651 79.0555 117.672 75.5785 121.423C74.7601 122.444 73.6695 123.808 74.5558 125.173C76.465 128.411 80.6231 128.411 83.895 128.244C86.6905 128.069 88.8718 126.872 91.1217 125.515C92.6894 124.319 94.1207 122.619 93.3708 120.744C92.8937 119.211 91.326 118.526 89.9626 118.015ZM70.0568 96.201V96.3692C72.511 98.9296 74.8966 101.315 77.3507 103.701V98.5866C75.1014 97.5652 72.511 96.7117 70.0568 96.201ZM151.885 134.653C148.243 133.459 144.609 132.267 141.091 131.476C139.542 131.781 137.992 131.904 136.443 132.027C135.402 132.109 134.36 132.192 133.319 132.33C129.192 132.879 124.924 133.287 120.714 133.689C118.388 133.911 116.079 134.131 113.822 134.373C101.503 135.852 89.3735 137.163 77.2505 138.474L75.7828 138.633C74.7421 138.771 73.7014 138.853 72.6607 138.936C71.1109 139.058 69.5611 139.181 68.0113 139.487C68.0113 139.487 67.4664 139.318 67.4664 139.829L159.769 149.029V137.101C157.164 136.384 154.522 135.518 151.885 134.653ZM28.4042 134.036C26.7002 133.862 25.4731 132.497 24.7909 131.14C24.4503 130.119 24.4503 129.259 24.9275 128.244C26.3115 128.58 27.679 128.832 29.0464 129.084C30.44 129.341 31.8336 129.598 33.2447 129.944C33.5853 130.623 33.2447 131.644 32.6991 132.33C31.5398 133.525 29.9721 134.204 28.4042 134.036ZM13.1354 160.842L24.9275 159.426V139.319C25.1704 138.465 26.038 138.31 26.8369 138.166C27.1581 138.108 27.4682 138.053 27.7222 137.955C28.0873 138.062 28.4928 138.086 28.9048 138.109C29.8013 138.161 30.7283 138.214 31.3354 139.144V158.404L38.9707 157.383C39.107 157.383 39.4479 157.208 39.3113 156.872C36.8572 154.997 35.4938 152.269 35.4938 149.372C35.2895 145.279 38.9707 141.704 42.584 140.34C45.8349 139.424 49.1476 139.123 52.5011 138.819C54.1401 138.67 55.7889 138.52 57.4449 138.297C70.9804 136.479 84.3015 134.863 97.6768 133.241C105.656 132.274 113.655 131.304 121.73 130.287L141.295 127.726C143.148 127.465 144.918 128.225 146.67 128.978C147.174 129.194 147.677 129.41 148.18 129.601C150.727 130.628 153.274 131.499 155.82 132.37C157.091 132.805 158.362 133.24 159.633 133.694C159.974 128.922 166.041 129.601 166.722 132.497V150.058C168.308 150.203 172.525 150.472 181.203 150.982C180.656 151.954 180.093 152.916 179.514 153.867L55.3316 141.53C54.6498 141.446 53.9681 141.404 53.2864 141.362C52.6046 141.32 51.923 141.278 51.2413 141.193C50.4299 141.291 49.6357 141.346 48.8571 141.4C46.9537 141.533 45.1434 141.658 43.4017 142.383C40.675 143.579 38.2208 146.301 37.88 149.198V150.904C38.6299 155.165 42.9246 157.04 46.1967 158.236L14.6124 162.817C14.1122 162.164 13.6198 161.506 13.1354 160.842ZM155.352 23.0263L162.701 121.591C162.905 122.619 161.678 122.955 160.996 122.619C160.322 121.969 160.081 120.922 159.855 119.934C159.784 119.624 159.714 119.321 159.633 119.037C158.923 116.968 158.441 114.781 157.963 112.612C157.615 111.033 157.269 109.464 156.838 107.955L141.977 103.016L126.229 117.161L138.159 124.662L126.434 126.362C125.835 126.041 125.169 125.654 124.478 125.252C122.967 124.374 121.336 123.425 120.026 122.955L114.504 127.901C110.822 128.58 106.869 129.09 103.256 129.433L102.915 129.259C104.826 127.273 106.969 125.342 109.087 123.434C110.596 122.075 112.092 120.727 113.481 119.379L113.277 119.211C110.585 117.359 107.688 115.816 104.777 114.266C103.929 113.815 103.079 113.362 102.233 112.901C101.595 112.565 101.027 112.188 100.477 111.822C98.7963 110.705 97.2871 109.702 94.4616 110.34C93.634 110.522 92.8445 110.654 92.0328 110.79C91.3067 110.911 90.5629 111.036 89.7583 111.201L96.3021 113.412C99.6425 115.119 103.256 118.358 103.256 122.444C103.051 125.683 100.802 128.411 98.2111 129.944C92.4388 130.99 86.7297 131.72 80.9539 132.459C78.2718 132.801 75.5754 133.146 72.8516 133.525C70.2611 132.84 67.4664 130.965 66.5799 128.244C65.2165 124.487 67.2613 120.569 70.2611 118.015C70.2611 117.975 70.2795 117.916 70.3009 117.848C70.3717 117.622 70.4753 117.291 70.0568 117.161C68.0113 116.651 66.1027 116.14 63.9894 115.462L63.8531 115.629V121.423C61.8902 121.839 59.9435 122.134 58.021 122.425C56.0043 122.731 54.0142 123.032 52.0598 123.466V127.216C52.8913 127.081 53.6912 126.999 54.4802 126.918C55.6963 126.793 56.8865 126.671 58.1271 126.362C58.8946 126.362 59.6621 126.241 60.4455 126.118C61.2624 125.989 62.0968 125.858 62.9666 125.858V130.798C61.4365 131.145 60.0013 131.333 58.5319 131.527C57.8407 131.617 57.1419 131.709 56.4222 131.819C56.0108 131.867 55.5937 131.916 55.1743 131.965C54.1343 132.087 53.0796 132.21 52.0598 132.33C52.0031 132.895 52.0286 133.461 52.0535 134.014C52.0887 134.795 52.1227 135.551 51.9232 136.247L44.9696 136.926C44.8338 130.287 44.8338 126.872 44.8338 121.423C44.8338 120.265 44.0191 119.973 43.2395 119.693C42.8691 119.56 42.5066 119.43 42.2431 119.211C42.2431 118.716 42.2746 118.38 42.3073 118.031C42.3424 117.657 42.3789 117.268 42.3789 116.651L136.796 99.4403C137.597 99.3344 138.299 99.1796 138.949 99.0366C140.401 98.717 141.586 98.456 142.999 98.9296L154.929 103.701C154.994 103.701 155.068 103.707 155.143 103.714C155.459 103.741 155.815 103.771 155.815 103.358C154.989 100.384 154.307 97.4098 153.63 94.4549C152.91 91.3138 152.194 88.1943 151.316 85.1196C149.996 84.6896 148.712 84.169 147.424 83.6466C145.652 82.9282 143.871 82.2063 141.977 81.712C139.727 84.9513 137.682 88.5332 135.773 91.9401V97.2224C134.398 97.4884 133.392 97.6493 132.023 97.8683C131.628 97.9315 131.202 97.9996 130.729 98.0764V92.6258C129.365 91.0869 128.002 89.7229 126.434 88.5332C125.424 88.1424 124.391 87.9199 123.4 87.7063C122.652 87.5451 121.927 87.3889 121.253 87.1693C121.048 87.1693 121.048 87.3368 121.048 87.505C122.616 88.0225 124.321 89.5547 124.525 91.2551C124.525 92.9616 123.502 94.494 121.934 95.5155L126.911 98.7549C126.226 98.8925 125.486 99.0574 124.722 99.2276C123.585 99.4808 122.394 99.746 121.253 99.9511C119.744 99.1439 118.534 98.5465 117.252 97.9136C116.911 97.7456 116.566 97.575 116.208 97.3974V100.798C114.729 101.286 113.128 101.463 111.636 101.629C111.546 101.639 111.457 101.648 111.368 101.658V90.4079L108.232 89.044C108.238 89.2197 108.245 89.3942 108.25 89.5676C108.447 95.2738 108.599 99.6634 107.21 101.483C106.48 103.154 104.018 103.47 102.671 103.642C102.507 103.663 102.359 103.682 102.233 103.701C101.868 103.74 101.521 103.789 101.184 103.836C100.075 103.992 99.0728 104.132 97.8705 103.869C96.8477 103.701 95.825 102.505 95.825 101.315V93.1298C95.419 92.8988 95.1705 92.7369 94.9546 92.5964C94.6996 92.4302 94.4902 92.2939 94.1207 92.1084L93.9164 95.6902L90.6438 96.537V105.576C89.2518 105.84 88.6589 105.896 87.6424 105.993C87.365 106.02 87.0559 106.049 86.6905 106.087V97.3974C86.4458 97.4548 86.229 97.5073 86.0288 97.5558C85.0577 97.791 84.4785 97.9313 83.0088 98.0764V95.1795C82.5316 95.0048 81.8502 94.837 81.1002 94.6688V107.276C80.7 107.364 80.3264 107.451 79.9659 107.535C78.914 107.78 77.9731 107.999 76.8056 108.13C75.1014 106.423 73.3287 104.723 71.4204 103.016V109.151C70.0568 109.326 69.1706 109.494 67.6707 109.83V99.2656L67.4664 98.5866C66.7842 98.2441 65.8979 97.9014 65.0122 98.2441V101.483C64.1788 101.733 63.264 101.903 62.3635 102.069C61.422 102.244 60.496 102.415 59.6948 102.673C59.6948 102.901 59.672 103.129 59.6492 103.357C59.6037 103.812 59.5583 104.266 59.6948 104.723C60.4958 104.637 61.2969 104.46 62.0889 104.285C62.847 104.117 63.5968 103.951 64.3303 103.869V106.423L59.6948 107.276V109.494C61.2874 109.096 62.384 108.906 63.6932 108.68C64.0649 108.615 64.4537 108.548 64.8759 108.472V110.34C63.0719 110.634 61.5613 110.93 59.89 111.258C58.6556 111.5 57.3335 111.759 55.7407 112.047V104.212L55.3316 103.526C54.964 103.42 54.6101 103.295 54.2525 103.169C53.4829 102.897 52.6961 102.619 51.7189 102.505C51.9259 102.765 52.1822 102.951 52.439 103.137C52.8585 103.441 53.2796 103.746 53.4909 104.38C52.8475 104.78 52.3465 105.064 51.8058 105.37C51.43 105.582 51.0351 105.806 50.5598 106.087C50.0142 105.401 48.9919 105.401 48.1057 105.576C47.6753 105.709 47.3723 106.054 47.0293 106.445C46.9375 106.55 46.8428 106.658 46.7421 106.766C46.1967 107.787 46.1967 109.326 46.7421 110.173C47.0829 111.026 47.9692 111.705 48.7871 111.705C49.9049 111.705 50.6103 110.905 51.2793 110.147C51.4263 109.98 51.5715 109.816 51.7189 109.662L53.968 110.515C53.968 111.201 53.2866 112.047 52.7409 112.558C50.3991 113.231 47.8594 113.567 45.3164 113.904L45.1744 113.923C44.1516 113.244 43.4017 112.047 42.9246 110.851C42.0383 108.472 43.2654 106.087 44.6288 104.212C44.4042 103.971 44.0134 103.806 43.5916 103.626C43.1173 103.425 42.6038 103.207 42.2431 102.848C42.2431 102.673 42.2295 102.475 42.2152 102.266C42.1738 101.663 42.126 100.966 42.3789 100.462C47.2303 99.1497 52.3337 97.9934 57.3863 96.8486L57.9906 96.7117C65.185 94.9934 72.3951 93.3555 79.5907 91.7209C87.3951 89.948 95.1827 88.1789 102.915 86.3153C113.146 83.8362 122.674 81.685 132.86 79.3851L133.864 79.1583C134.201 79.0796 134.536 79.0009 134.87 78.9226C137.44 78.3193 139.928 77.7354 142.522 77.2834C144.2 77.8083 145.645 78.4606 147.112 79.1228C148.03 79.5369 148.956 79.9549 149.953 80.348C150.089 80.348 150.294 80.012 150.294 79.8373L146.953 67.5727L139.727 64.844C140.311 67.3275 140.295 70.4374 140.278 73.527C140.275 74.0414 140.272 74.5552 140.272 75.0654C139.962 75.1523 139.664 75.2391 139.377 75.3231C138.528 75.5709 137.764 75.7937 137 75.9194V68.0834C137 67.7409 136.796 67.3977 136.455 67.0552C136.415 67.0356 136.372 67.0135 136.327 66.9902C135.987 66.814 135.505 66.5649 135.023 66.7192C134.931 66.8105 134.828 66.89 134.724 66.9708C134.443 67.1875 134.15 67.4145 134.001 67.9084V76.4301L130.592 77.2834L130.388 61.9476L111.232 54.1049C113.822 56.1546 114.981 58.0233 115.526 61.4369C116.89 70.2946 112.254 78.4731 104.96 83.4191C99.9838 84.7831 94.9392 85.9728 90.0989 86.9943C88.5128 87.2357 87.1978 86.7993 85.8195 86.3418C85.2428 86.1503 84.655 85.9552 84.0316 85.8046C78.5098 83.4191 75.7828 77.4516 75.9194 71.4903C75.9194 69.681 76.3114 68.2619 76.7388 66.7145C76.875 66.2218 77.0147 65.716 77.1465 65.1805C76.5028 64.9018 75.7787 64.5076 75.0166 64.0927C73.9222 63.497 72.7495 62.8586 71.6245 62.4584L72.511 63.3118C76.8824 70.9338 71.55 76.4747 66.3221 81.9069C64.5392 83.7595 62.7685 85.5995 61.399 87.505L61.2624 88.0225L74.4195 85.1196V90.7444L45.1744 97.5649L45.311 94.494L47.2192 91.9401L63.8531 73.0225C64.7394 72.001 65.7622 70.6371 65.4208 69.1049C65.2165 68.2517 64.5346 67.5727 63.6489 67.2302C61.6033 66.5445 59.49 66.887 57.7858 68.0834C56.0816 69.2731 54.9908 71.1478 54.3094 73.0225C53.351 73.2611 52.3674 73.5213 51.3585 73.7881C49.4968 74.2805 47.5491 74.7957 45.5152 75.2404L45.311 75.0654C45.311 73.4869 45.8671 72.2508 46.4333 70.9925C46.6599 70.4888 46.8881 69.9816 47.0829 69.4474C50.1505 62.9691 57.2406 58.3658 64.3303 58.8765C68.4177 59.1976 70.7696 60.2619 74.4697 61.9364C74.7193 62.0494 74.9751 62.1651 75.2379 62.2836L77.8279 63.4801C78.8286 61.1453 80.5478 59.2995 82.4096 57.3006L82.5316 57.1695C88.5312 50.698 97.1883 47.8017 105.505 50.3548C110.943 51.8897 116.239 54.1306 121.594 56.3964C124.564 57.653 127.552 58.9173 130.592 60.0729V54.1049C131.671 53.7007 132.452 53.5115 133.406 53.28C133.658 53.219 133.921 53.155 134.206 53.0834L144.363 57.1695L131.636 9.32434C140.197 12.8042 148.166 17.4356 155.352 23.0263ZM28.4042 125.173L33.0023 22.7518C38.9048 18.2019 45.3297 14.2968 52.1718 11.1417L31.1311 125.683C30.654 126.362 29.7678 126.705 29.2907 126.537C28.5407 126.362 28.0636 125.683 28.4042 125.173Z" fill="white"/>
</svg>
