<svg width="200" height="200" viewBox="0 0 200 200" fill="none" xmlns="http://www.w3.org/2000/svg">
<circle cx="100" cy="100" r="100" fill="black"/>
<path fill-rule="evenodd" clip-rule="evenodd" d="M144.05 138.834C141.362 138.252 134.391 132.484 130.879 128.755C127.362 125.027 113.091 108.011 113.091 82.6071C113.091 73.0541 114.85 65.3615 117.923 60.002C125.39 63.963 132.909 66.0607 144.05 66.0607V72.5575C134.61 72.5575 153.491 72.5556 144.05 72.5575V66.0607C155.192 66.0587 162.715 63.961 170.182 60C173.25 65.3605 175.013 73.0532 175.013 82.6071C175.013 108.011 160.737 125.025 157.225 128.755C153.714 132.484 146.739 138.252 144.05 138.834Z" fill="black"/>
<path fill-rule="evenodd" clip-rule="evenodd" d="M102.456 82.5436H80.6021V60.6923H45.8724V82.5436H24.0208V117.273H45.8724V139.124H80.6021V117.273H102.456V82.5436Z" fill="black"/>
<path fill-rule="evenodd" clip-rule="evenodd" d="M78.1925 84.1516C74.3273 80.4835 69.103 78.2289 63.3519 78.2289C57.4037 78.2289 52.0162 80.6504 48.1218 84.5548L45.8594 82.4571V60.6029H80.6267L80.6338 82.4552L78.1925 84.1516Z" fill="white"/>
<path fill-rule="evenodd" clip-rule="evenodd" d="M67.4595 87.9348C67.4595 86.2006 69.733 85.9295 68.639 82.1025C72.0104 82.8315 74.882 85.4338 77.3869 87.9348H67.4595Z" fill="white"/>
<path fill-rule="evenodd" clip-rule="evenodd" d="M58.8924 87.9348H48.9644C51.1504 85.0177 54.3409 82.8316 57.7064 82.1035C56.6144 85.9295 58.8924 86.2026 58.8924 87.9348Z" fill="white"/>
<path fill-rule="evenodd" clip-rule="evenodd" d="M81.3902 95.5848C82.6708 102.69 80.5703 107.791 77.2942 111.892C77.2942 111.892 70.6416 99.3213 69.9125 97.9536C69.1886 96.5879 69.9125 96.4975 70.7298 96.4071C71.3733 96.4071 81.3902 95.5848 81.3902 95.5848Z" fill="white"/>
<path fill-rule="evenodd" clip-rule="evenodd" d="M44.9534 95.5848C44.9534 95.5848 54.9761 96.4071 55.6138 96.4071C56.4304 96.4975 57.1634 96.5879 56.4304 97.9536C55.7052 99.3213 49.0526 111.892 49.0526 111.892C45.7739 107.793 43.6793 102.69 44.9534 95.5848Z" fill="white"/>
<path fill-rule="evenodd" clip-rule="evenodd" d="M70.921 116.63C68.8284 117.722 66.1822 118.267 63.1744 118.269C60.1692 118.269 57.527 117.722 55.4324 116.63C55.4324 116.63 62.5387 105.423 63.1744 105.423C63.8121 105.423 70.921 116.63 70.921 116.63Z" fill="white"/>
<path fill-rule="evenodd" clip-rule="evenodd" d="M75.3137 117.702C75.3137 117.702 65.6339 103.693 65.0856 102.78C64.5399 101.872 64.0842 101.326 63.1743 101.326C62.2625 101.326 61.8056 101.872 61.2612 102.78C60.7771 103.585 52.9786 114.908 51.1614 117.541C54.6306 119.928 58.8322 121.324 63.3591 121.324L45.8594 139.17V117.312L49.873 116.58C51.2554 113.983 57.2839 102.756 59.164 99.23C61.2612 95.3126 58.9812 93.6728 55.8853 93.491C53.0104 93.3222 48.3273 92.5464 43.0823 92.4352C42.2547 94.7197 41.8062 97.2067 41.8062 99.7753C41.8062 106.57 44.9592 112.633 49.873 116.58L45.8594 117.312H24.0039L24 82.4571H45.8594L48.1218 84.5548C46.3428 86.3377 44.8749 88.4314 43.7991 90.7467L58.2547 90.7567C59.6883 90.7567 60.8451 90.3395 61.5127 89.6532C62.3792 88.7721 62.4394 87.4551 61.2612 86.0189C59.164 83.4683 60.9825 81.009 63.1743 81.1014C65.3603 81.1928 67.1795 83.4683 65.0856 86.0189C63.9073 87.4551 63.9708 88.7721 64.8302 89.6532C65.5029 90.3395 66.6559 90.7567 68.0907 90.7567L82.9333 90.7526C81.7797 88.2596 80.164 86.0209 78.1925 84.1516L80.6338 82.4552H102.484V117.312H80.6338L76.5664 116.801C81.6377 112.857 84.9054 106.699 84.9054 99.7753C84.9054 97.1829 84.4524 94.7008 83.6111 92.3975C78.221 92.4809 73.4005 93.3192 70.4608 93.491C67.3629 93.6708 65.0855 95.3126 67.1795 99.228C69.28 103.146 76.2929 116.253 76.5664 116.801L80.6338 117.312V139.17H45.8594L63.3591 121.324C67.7803 121.324 71.8898 119.99 75.3137 117.702Z" fill="white"/>
<path fill-rule="evenodd" clip-rule="evenodd" d="M144.05 138.834C141.362 138.252 134.391 132.484 130.879 128.755C127.362 125.027 113.091 108.011 113.091 82.6071C113.091 73.0541 114.85 65.3615 117.923 60.002C125.39 63.963 132.909 66.0607 144.05 66.0607V72.5575C134.61 72.5575 125.732 70.2661 121.103 67.8079C119.406 70.3734 118.641 77.483 118.641 82.3777C118.641 105.296 130.564 120.008 132.196 121.997C134.391 124.676 142.568 132.034 144.05 132.385C145.536 132.034 153.714 124.676 155.906 121.997C157.54 120.006 169.459 105.294 169.459 82.3757C169.459 77.479 168.696 70.3714 166.999 67.8079C162.371 70.2641 153.491 72.5556 144.05 72.5575V66.0607C155.192 66.0587 162.715 63.961 170.182 60C173.25 65.3605 175.013 73.0532 175.013 82.6071C175.013 108.011 160.737 125.025 157.225 128.755C153.714 132.484 146.739 138.252 144.05 138.834Z" fill="white"/>
<path fill-rule="evenodd" clip-rule="evenodd" d="M140.896 81.4212C140.896 81.4212 140.711 81.9496 140.344 81.9942C139.989 82.035 139.757 81.881 139.516 81.7291C138.872 81.3258 138.466 81.2543 138.466 81.2543C138.466 81.2543 139.768 80.8054 140.896 81.4212Z" fill="white"/>
<path fill-rule="evenodd" clip-rule="evenodd" d="M146.229 83.7116C146.958 83.357 148.791 81.7042 149.399 81.2961C150.609 80.4826 152.419 82.0281 151.266 83.1484C148.231 86.1023 146.78 87.62 146.023 88.4265C145.981 88.4722 145.607 89.232 145.246 89.4396L145.352 90.0196C145.691 90.106 146.017 90.2242 146.325 90.2998C153.699 92.1064 151.411 100.586 145.91 100.504L145.076 101.209L141.634 100.887L140.662 98.7035L140.389 99.6908L141.15 101.458C142.38 101.539 142.84 101.507 144.294 101.694C144.552 101.726 145.005 101.83 145.837 102.009C151.736 103.272 150.339 110.077 145.585 110.553C145.596 109.869 145.613 109.134 145.68 108.394L145.048 108.733C145.037 109.554 145.09 109.533 145.076 110.329C145.072 110.744 145.08 111.623 145.076 112.024C144.645 111.962 144.05 111.681 143.612 111.511C142.95 111.259 142.599 110.92 142.211 110.71C142.204 110.587 142.191 110.082 142.183 109.955L142.187 109.035L141.624 109.143C141.638 109.617 141.709 110.039 141.748 110.655C140.902 111.091 141.54 111.184 141.928 111.316C142.349 111.457 143.371 111.969 143.957 112.225C144.425 112.424 145.388 112.789 145.755 112.951C148.85 114.291 148.528 118.051 145.366 119.705L144.896 120.013C144.857 122.419 144.673 124.639 144.652 124.859C144.652 124.859 143.626 125.331 142.797 124.776C142.797 124.443 142.756 122.703 142.72 121.286L142.204 121.146C141.514 121.737 141.596 122.875 141.267 123.374C141.192 123.479 141.065 123.57 140.896 123.486C140.446 123.253 140.387 122.297 140.383 122.062C140.368 120.851 141.172 119.374 142.155 118.989L142.204 121.146L142.72 121.286C142.692 119.838 142.597 117.389 142.507 115.356C142.87 115.496 142.876 115.456 143.297 115.581C143.955 115.771 144.393 116.17 144.588 116.426C145.005 116.85 144.913 119.03 144.896 120.013L145.366 119.705L145.362 117.057C145.366 116.469 145.147 116.036 144.793 115.697C144.511 115.432 144.283 115.234 143.675 114.921C143.343 114.749 143.088 114.665 142.293 114.463C136.771 113.073 138.129 107.891 141.518 107.868C141.553 108.317 141.618 108.769 141.624 109.143L142.187 109.035L142.116 107.85C142.087 107.49 142.056 106.37 142.069 105.967C142.576 105.989 142.833 106.057 143.439 106.123C144.539 106.249 144.546 106.085 145.102 106.237C145.098 106.406 145.143 107.071 145.126 107.286C145.102 107.72 145.055 108.301 145.048 108.733L145.68 108.394C145.712 107.939 145.713 107.794 145.841 107.467C146.236 107.039 147.036 106.88 146.448 106.031C146.12 105.557 144.917 105.668 143.82 105.547C143.237 105.482 142.668 105.516 140.761 105.156C136.361 104.313 136.683 98.6847 139.529 97.5792L140.389 99.6908L140.662 98.7035L139.749 96.4737L141.143 94.225L145.072 94.5309L145.076 101.209L145.91 100.504C145.384 98.2924 145.685 96.2463 145.685 96.2463C147.517 96.0526 146.187 94.1257 145.68 94.0324C144.97 93.8972 144.397 93.9012 143.179 93.783C142.395 93.7086 141.058 93.6142 140.368 93.5228C128.615 92.0021 130.341 81.3874 136.06 80.4379C140.213 79.7466 142.448 81.3347 143.156 83.0283C143.156 83.0283 141.963 83.5894 140.995 83.4762C139.087 83.2527 137.946 83.4017 137.946 83.4017C138.582 83.9867 140.69 84.3215 141.549 85.0654C140.585 85.4944 139.48 85.4597 138.447 85.3306C137.571 85.2193 136.75 85.0197 135.874 84.6909C135.548 85.7537 134.85 88.0193 140.086 89.078C140.804 89.2231 141.702 89.4803 142.653 89.5519C143.655 89.6601 144.552 89.818 145.352 90.0196L145.246 89.4396L141.002 88.7215C140.849 87.8405 140.797 86.7747 140.831 85.7944C141.702 85.708 141.914 85.5997 142.427 85.1826L142.239 84.6065C143.516 85.0127 144.673 85.1716 145.102 85.122L144.552 84.5241C143.966 84.4218 143.343 84.1218 142.599 83.8814C143.569 83.7344 143.902 83.4613 143.902 83.4613C143.902 83.4613 143.796 82.9985 143.407 82.2486C142.742 80.9861 141.235 80.2432 141.235 80.2432C140.959 79.7883 141.065 79.4883 141.058 79.2489C141.016 77.7552 141.865 78.0799 143.427 78.5934L144.05 74.9979C135.555 74.9979 126.691 73.7494 122.524 71.5395C120.989 73.8487 120.689 79.7923 120.813 84.1933C121.478 106.917 131.89 118.064 133.362 119.853C135.332 122.265 142.717 129.171 144.05 129.522C145.388 129.171 152.769 122.265 154.743 119.853C156.21 118.064 166.627 106.917 167.284 84.1923C167.415 79.7903 167.108 73.8467 165.576 71.5395C161.415 73.7494 152.546 74.9959 144.05 74.9979L143.427 78.5934C143.732 78.7186 143.888 78.9242 144.011 78.9738C145.016 79.387 145.968 80.0009 145.935 80.2959C145.935 80.2959 145.861 83.8933 146.229 83.7116Z" fill="white"/>
</svg>
