<svg width="200" height="200" viewBox="0 0 200 200" fill="none" xmlns="http://www.w3.org/2000/svg">
<circle cx="100" cy="100" r="100" fill="#409C8C"/>
<path d="M106.886 65.05C105.694 67.649 102.672 69.501 99.0972 69.501C95.5222 69.501 92.4992 67.647 91.3082 65.05H90.7632V68.458C90.7632 72.242 94.4962 75.304 99.0972 75.304C103.707 75.304 107.439 72.242 107.439 68.458V65.05H106.886Z" fill="white"/>
<path d="M113.027 73.47C111.151 78.319 105.625 81.831 99.0961 81.831C92.5701 81.831 87.0511 78.318 85.1681 73.47H84.4751V79.333C84.4751 85.973 91.0241 91.354 99.0961 91.354C107.171 91.354 113.729 85.975 113.729 79.333V73.47H113.027Z" fill="white"/>
<path d="M118.797 64.984C111.073 60.359 103.388 59.019 101.604 61.992C99.8032 64.984 104.618 71.143 112.324 75.763C120.047 80.399 127.738 81.743 129.522 78.757C131.3 75.772 126.499 69.603 118.797 64.984ZM131.366 80.035C129.02 83.946 119.978 82.844 111.164 77.56C102.367 72.283 97.1232 64.816 99.4622 60.912C101.82 56.997 110.857 58.105 119.686 63.373C128.48 68.665 133.707 76.125 131.366 80.035Z" fill="white"/>
<path d="M73.304 101.768C73.304 101.768 76.502 102.183 83.265 106.697C90.024 111.211 94.578 117.196 94.578 117.196V159.222C87.005 158.651 79.824 156.679 73.304 153.525V101.768ZM114.983 106.697C121.741 102.183 124.941 101.768 124.941 101.768V153.485C118.431 156.645 111.254 158.637 103.669 159.222V117.196C103.669 117.196 108.233 111.21 114.983 106.697ZM132.271 149.239V86.74C132.271 86.74 125.563 88.979 115.287 95.687C105.023 102.404 99.099 108.724 99.099 108.724C99.099 108.724 93.171 102.405 82.91 95.687C72.637 88.979 65.925 86.74 65.925 86.74V149.279C50.157 138.613 39.785 120.566 39.785 100.099C39.785 67.333 66.346 40.784 99.099 40.784C119.4 40.784 137.316 50.987 148.016 66.552L154.837 61.004C142.515 43.472 122.153 32 99.098 32C61.496 32 31 62.49 31 100.099C31 137.709 61.496 168.195 99.098 168.195C121.122 168.195 140.695 157.728 153.137 141.519L145.783 136.662C141.973 141.528 137.401 145.763 132.271 149.239Z" fill="white"/>
</svg>
