<svg width="200" height="200" viewBox="0 0 200 200" fill="none" xmlns="http://www.w3.org/2000/svg">
<circle cx="100" cy="100" r="100" fill="black"/>
<path d="M134.55 117.917C130.775 117.699 127.106 116.542 123.851 114.545C120.595 112.547 117.849 109.767 115.844 106.438C118.263 86.4064 125.305 80.1792 134.622 80.1792C143.939 80.1792 151.017 87.6818 151.017 98.9356C151.017 110.189 143.794 117.692 134.622 117.692M134.622 67.6498C128.047 67.3731 121.587 69.5056 116.372 73.6749C111.158 77.8439 107.519 83.7844 106.093 90.4577C103.002 83.7301 100.664 76.6564 99.1237 69.3754H76.1201V99.0107C76.1201 109.777 71.4256 117.767 62.2169 117.767C53.0083 117.767 47.7719 109.814 47.7719 99.0107V69.3754H34.5548V99.0107C34.2549 107.223 36.9798 115.245 42.1745 121.443C44.7101 124.311 47.8076 126.582 51.2584 128.102C54.7092 129.623 58.4335 130.358 62.1808 130.259C78.1063 130.259 89.265 117.542 89.265 99.3482V79.3164C91.9696 90.0957 96.4405 100.311 102.482 109.514L95.4041 151.454H108.838L113.496 121.743C115.039 123.123 116.68 124.377 118.408 125.495C122.895 128.439 128.054 130.096 133.358 130.296H134.586C138.532 130.339 142.445 129.552 146.09 127.982C149.736 126.413 153.037 124.093 155.797 121.163C158.557 118.233 160.718 114.754 162.149 110.934C163.58 107.114 164.253 103.033 164.126 98.9356C164.218 94.8537 163.519 90.7943 162.071 86.9985C160.623 83.2028 158.454 79.7481 155.695 76.84C152.936 73.932 149.643 71.6298 146.01 70.0704C142.377 68.511 138.48 67.7261 134.55 67.7625" fill="white"/>
</svg>
