<svg width="200" height="200" viewBox="0 0 200 200" fill="none" xmlns="http://www.w3.org/2000/svg">
<circle cx="100" cy="100" r="100" fill="#CF4044"/>
<path d="M141.437 125.799C143.549 125.501 145.54 126.704 147.531 127.459C150.91 128.821 154.289 129.874 157.668 131.081C157.969 126.858 163.34 127.458 163.943 130.021V145.565C165.347 145.694 169.079 145.93 176.759 146.382C176.274 147.242 175.777 148.094 175.265 148.937L65.3486 138.017C64.1418 137.868 62.9351 137.868 61.7285 137.719C59.2546 138.017 56.9613 137.868 54.7891 138.772C52.3758 139.831 50.2041 142.24 49.9023 144.804V146.314C50.5663 150.086 54.3675 151.745 57.2637 152.804L29.3076 156.857C28.8648 156.28 28.4288 155.698 28 155.109L38.4375 153.857V136.06C38.739 135.001 40.1272 135.156 40.9111 134.853C41.9373 135.156 43.325 134.704 44.1094 135.905V152.953L50.8672 152.049C50.9878 152.049 51.2897 151.894 51.1689 151.597C48.9967 149.937 47.79 147.522 47.79 144.958C47.6092 141.336 50.8673 138.171 54.0654 136.964C58.3492 135.756 62.7547 135.756 67.2197 135.155C86.3474 132.586 104.991 130.474 124.119 128.065L141.437 125.799ZM141.256 129.118C138.963 129.57 136.67 129.57 134.377 129.874C128.705 130.629 122.732 131.081 117.12 131.682C105.776 133.044 94.6132 134.246 83.4502 135.453C81.1575 135.757 78.8643 135.757 76.5713 136.209C76.5586 136.205 76.0899 136.066 76.0898 136.512L157.789 144.655V134.097C152.298 132.586 146.626 130.326 141.256 129.118ZM132.888 21C140.464 24.0801 147.517 28.1796 153.878 33.1279L160.383 120.368C160.564 121.278 159.478 121.576 158.875 121.278C158.091 120.523 157.969 119.161 157.668 118.108C156.582 114.944 156.099 111.469 155.194 108.299L142.04 103.928L128.102 116.448L138.661 123.087L128.283 124.591C126.593 123.687 124.301 122.183 122.611 121.576L117.724 125.953C114.465 126.554 110.966 127.006 107.768 127.31L107.466 127.155C110.362 124.145 113.862 121.278 116.818 118.411L116.638 118.262C113.56 116.144 110.181 114.485 106.862 112.678C104.569 111.47 103.302 109.661 99.9834 110.41C98.5956 110.714 97.3285 110.862 95.8203 111.172L101.612 113.129C104.569 114.639 107.768 117.507 107.768 121.124C107.587 123.991 105.595 126.406 103.302 127.762C95.8204 129.118 88.4589 129.873 80.8564 130.932C78.5636 130.325 76.0893 128.666 75.3047 126.257C74.0981 122.932 75.9083 119.464 78.5635 117.204C78.5635 117.049 78.8644 116.597 78.3818 116.448C76.5714 115.996 74.8821 115.544 73.0117 114.943L72.8916 115.092V120.22C69.3317 120.975 65.8319 121.278 62.4531 122.027V125.347C64.3235 125.043 66.0128 125.043 67.8232 124.591C69.2107 124.591 70.5981 124.146 72.1064 124.146V128.518C70.1153 128.97 68.3056 129.118 66.3145 129.422C65.0476 129.57 63.7197 129.725 62.4531 129.874C62.3324 131.081 62.6335 132.288 62.332 133.341L56.1768 133.942C56.0566 128.066 56.0566 125.043 56.0566 120.22C56.0566 118.709 54.4877 118.863 53.7637 118.262C53.7637 117.352 53.8838 117.049 53.8838 115.996L137.455 100.763C139.747 100.459 141.135 99.7039 142.945 100.311L153.504 104.534C153.806 104.534 154.289 104.682 154.289 104.23C152.781 98.7996 151.815 93.3687 150.307 88.0869C147.531 87.1828 144.936 85.8269 142.04 85.0713C140.049 87.9384 138.239 91.1086 136.55 94.124V98.7998C134.981 99.1032 133.955 99.2521 132.084 99.5557V94.7305C130.877 93.3685 129.671 92.1613 128.283 91.1084C126.714 90.5015 125.085 90.3534 123.697 89.9014C123.516 89.9014 123.516 90.0494 123.516 90.1982C124.904 90.6562 126.412 92.0126 126.593 93.5176C126.593 95.028 125.687 96.3849 124.3 97.2891L128.705 100.156C127.197 100.459 125.386 100.911 123.697 101.215C122.008 100.311 120.741 99.7035 119.232 98.9541V101.964C117.844 102.422 116.335 102.571 114.947 102.726V92.7676L112.173 91.5605C112.354 96.8366 112.534 100.911 111.267 102.571C110.542 104.23 107.888 104.38 106.862 104.534C105.475 104.683 104.388 104.986 103.001 104.683C102.096 104.534 101.19 103.475 101.19 102.422V95.1768C100.406 94.7307 100.285 94.5756 99.6816 94.2725L99.501 97.4434L96.6045 98.1924V106.193C95.0362 106.491 94.6136 106.491 93.1055 106.646V98.9541C91.8382 99.2515 91.4155 99.4008 89.8467 99.5557V96.9912C89.4244 96.8366 88.821 96.688 88.1572 96.5391V107.698C86.7697 108.002 85.743 108.299 84.3555 108.454C82.8471 106.943 81.2779 105.439 79.5889 103.928V109.358C78.3822 109.513 77.5979 109.662 76.2705 109.959V100.608L76.0898 100.007C75.486 99.7037 74.701 99.4007 73.917 99.7041V102.571C72.4083 103.023 70.5984 103.178 69.2109 103.623C69.2109 104.23 69.0297 104.832 69.2109 105.438C70.5984 105.29 71.986 104.832 73.3135 104.683V106.942L69.2109 107.698V109.661C71.0207 109.209 72.107 109.06 73.7969 108.757V110.41C71.0208 110.862 69.0295 111.322 65.7109 111.922V104.986L65.3486 104.379C64.3234 104.082 63.418 103.624 62.1514 103.476C62.6339 104.082 63.4183 104.231 63.7197 105.135C62.7545 105.736 62.1509 106.039 61.125 106.646C60.6421 106.039 59.7374 106.039 58.9531 106.193C58.4703 106.342 58.1682 106.793 57.7461 107.246C57.2634 108.149 57.2635 109.512 57.7461 110.262C58.0477 111.017 58.8318 111.618 59.5557 111.618C60.7624 111.618 61.4269 110.565 62.1514 109.81L64.1416 110.565C64.1415 111.172 63.5385 111.921 63.0557 112.373C60.9443 112.98 58.6512 113.277 56.3584 113.581C55.4532 112.98 54.7895 111.921 54.3672 110.862C53.583 108.757 54.6684 106.646 55.875 104.986C55.4527 104.534 54.3668 104.379 53.7637 103.778C53.7637 103.178 53.5825 102.268 53.8838 101.667C58.3491 100.459 63.0558 99.4007 67.7021 98.3477C80.9767 95.1773 94.3114 92.3159 107.466 89.1455C116.818 86.8792 125.507 84.9224 134.859 82.8105C137.454 82.2041 139.928 81.6034 142.522 81.1514C144.936 81.9065 146.807 82.9592 149.1 83.8633C149.22 83.8633 149.401 83.5658 149.401 83.4111L146.444 72.5557L140.049 70.1406C140.652 72.7046 140.531 76.0232 140.531 79.1875C139.445 79.4913 138.541 79.7944 137.636 79.9434V73.0078C137.636 72.7047 137.454 72.4007 137.152 72.0977C136.851 71.9487 136.368 71.6462 135.886 71.8008C135.584 72.0982 135.162 72.2532 134.98 72.8535V80.3955L131.964 81.1514L131.782 67.5771L114.827 60.6357C117.12 62.4498 118.146 64.1037 118.628 67.125C119.835 74.9651 115.732 82.2042 109.275 86.582C104.871 87.7892 100.406 88.842 96.1221 89.7461C94.1308 90.0492 92.6223 89.1454 90.752 88.6934C85.8646 86.582 83.4504 81.2999 83.5713 76.0234C83.5713 73.9121 84.1743 72.4009 84.6572 70.4385C83.2695 69.8375 81.4587 68.6302 79.7695 68.0293L80.5547 68.7842C85.7435 77.8314 75.4853 83.566 70.7188 90.1982L70.5986 90.6562L82.2441 88.0869V93.0654L56.3584 99.1025L56.4795 96.3848L58.168 94.124L72.8916 77.3799C73.676 76.4758 74.5814 75.2682 74.2793 73.9121C74.0985 73.1571 73.4947 72.5561 72.7109 72.2529C70.9004 71.646 69.0289 71.9488 67.5205 73.0078C66.0122 74.0609 65.0475 75.7206 64.4443 77.3799C62.0309 77.9809 59.4359 78.7358 56.6602 79.3428L56.4795 79.1875C56.4796 77.2312 57.4447 75.8688 58.0479 74.2148C60.7631 68.481 67.0385 64.4064 73.3135 64.8584C77.1752 65.1617 79.287 66.2148 82.9678 67.874L85.2607 68.9336C86.1658 66.822 87.7346 65.1619 89.4238 63.3477C94.7342 57.6196 102.397 55.0566 109.759 57.3164C117.241 59.4284 124.421 63.0507 131.964 65.918V60.6357C133.171 60.1838 133.955 60.0352 135.162 59.7314L144.152 63.3477L132.888 21ZM38.4375 126.257C40.9111 126.857 43.3246 127.155 45.7988 127.762C46.1003 128.363 45.7994 129.267 45.3164 129.874C44.2903 130.932 42.9024 131.533 41.5146 131.384C40.0065 131.23 38.9202 130.022 38.3164 128.82C38.0151 127.916 38.0152 127.155 38.4375 126.257ZM163.943 122.331C164.064 123.687 163.641 125.043 162.676 125.799C161.65 126.703 160.082 127.007 158.694 126.555C157.488 126.103 156.401 124.895 156.28 123.539L163.943 122.331ZM96.001 117.204C91.5357 115.996 86.347 116.9 83.2695 120.22C82.5451 121.124 81.5799 122.331 82.3643 123.539C84.0542 126.406 87.7349 126.405 90.6309 126.257C93.1052 126.102 95.036 125.043 97.0273 123.842C98.4148 122.783 99.6814 121.278 99.0176 119.618C98.5951 118.262 97.2076 117.656 96.001 117.204ZM43.9287 123.991C43.5065 124.591 42.7222 124.895 42.2998 124.746C41.6361 124.591 41.2134 123.991 41.5146 123.539L45.584 32.8848C50.8085 28.8574 56.4956 25.4011 62.5518 22.6084L43.9287 123.991ZM113.861 108.002L114.224 108.299L119.714 111.618C120.619 112.076 121.404 112.825 122.43 113.129L125.688 110.262L114.042 107.853L113.861 108.002ZM78.3818 98.0439C80.554 100.31 82.6657 102.422 84.8379 104.534V100.007C82.847 99.1028 80.5539 98.3475 78.3818 97.8955V98.0439ZM104.871 99.7041C104.871 101.066 104.872 101.363 105.294 101.964C105.475 102.267 105.897 102.422 106.682 102.268C107.587 102.119 107.888 101.667 107.888 100.911V94.4277L104.871 92.917V99.7041ZM121.826 93.5176C121.404 92.9169 120.137 92.7678 119.232 93.0654V95.7842C120.137 95.4806 121.102 95.7837 121.826 94.8799C122.128 94.5761 122.007 93.9696 121.826 93.5176ZM130.576 87.9385C131.662 89.1457 132.989 90.657 134.075 91.71L135.281 89.4492C135.463 89.1454 135.584 88.8421 135.463 88.5449C133.955 88.087 132.265 87.9379 130.576 87.6348V87.9385ZM125.809 71.9492C127.197 71.8007 127.8 71.646 129.007 71.3486V74.5127L126.11 75.2686L125.99 75.417V82.8105C124.904 82.9594 123.999 83.1142 122.913 83.2627V69.6826C123.818 69.3855 124.783 69.2305 125.809 69.082V71.9492ZM110.181 67.874C108.853 64.8586 105.775 63.3478 102.396 63.6514C100.104 63.8057 98.1133 65.0134 96.1221 66.2148C93.1053 68.7842 90.3296 72.5557 91.5361 77.0762C92.1393 79.6398 94.6136 81.6031 97.0273 82.2041C101.19 82.9595 104.69 81.2998 107.587 78.4326C110.362 75.8691 111.87 71.6453 110.181 67.874ZM134.859 70.4385C135.282 69.9864 135.463 69.6825 135.886 69.2305C137.937 67.274 139.265 68.4815 143.126 69.8379L146.022 70.8965L144.815 65.1621L134.859 60.9395V70.4385Z" fill="white"/>
</svg>
