<svg width="200" height="200" viewBox="0 0 200 200" fill="none" xmlns="http://www.w3.org/2000/svg">
<circle cx="100" cy="100" r="100" fill="#409C8C"/>
<path d="M56.0709 60.8234C51.0471 61.4032 46.6031 62.3696 46.0234 62.7562C45.637 63.336 50.081 81.3108 56.0709 102.958L67.0845 142H76.9387H86.9862L93.3625 115.714L99.932 89.4285L106.502 115.714L112.878 142H122.925H132.973L143.986 102.765C150.169 81.3108 155 63.1427 155 62.1763C155 61.4032 150.363 60.8234 144.566 60.8234H134.132L131.041 73.773C129.495 81.1175 127.176 92.9075 125.824 100.059L123.312 113.202L117.515 87.4957L111.525 61.7898L101.285 61.2099C89.4981 60.4368 90.271 59.0839 82.3489 91.5545L77.132 113.008L71.7218 86.7226C68.6302 72.2268 65.9252 60.2436 65.7319 60.0503C65.3455 59.857 61.0946 60.2436 56.0709 60.8234Z" fill="white"/>
</svg>
