<svg width="200" height="200" viewBox="0 0 200 200" fill="none" xmlns="http://www.w3.org/2000/svg">
<circle cx="100" cy="100" r="100" fill="black"/>
<path d="M119.369 59.0167C119.929 58.8922 120.178 59.0789 120.521 59.4524C122.45 61.5995 128.612 69.1301 130.292 71.184C130.603 71.5574 130.385 71.9619 130.136 72.1798C117.689 81.8887 103.841 95.6431 96.1235 105.476C95.968 105.694 96.0924 105.694 96.2169 105.663C109.66 99.875 141.245 90.633 155.466 88.0502V70.0326L99.7955 26L44.0312 70.0015V89.6994C61.302 79.4304 101.258 63.5288 119.369 59.0167Z" fill="white"/>
<path d="M74.0607 134.697C73.5939 134.946 73.2205 134.884 72.847 134.51L62.4535 122.125C62.1734 121.783 62.1423 121.596 62.5157 121.067C70.5443 109.304 86.9437 90.9754 97.3995 83.2269C97.5862 83.1024 97.524 82.9468 97.3061 83.0401C86.4147 86.5876 55.4518 99.9064 44.0002 106.379V148.451H155.436V107.935C140.25 110.518 94.7544 124.055 74.0607 134.697Z" fill="white"/>
</svg>
