<svg width="200" height="200" viewBox="0 0 200 200" fill="none" xmlns="http://www.w3.org/2000/svg">
<circle cx="100" cy="100" r="100" fill="#CF4044"/>
<path d="M141.661 109.849H77.7145C79.158 122.353 87.0903 132.694 103.68 132.694C112.817 132.694 120.268 130.049 125.796 125.72C129.162 123.076 132.047 120.91 136.375 120.91C143.586 120.91 147.916 125.478 147.916 131.487C147.916 138.219 142.624 142.791 137.577 145.913C129.643 150.964 119.066 155.528 102.476 155.528C66.4137 155.528 47.6606 130.527 47.6606 100.475C47.6606 68.7409 70.5041 45.4208 101.995 45.4208C132.047 45.4208 152 68.9826 152 100.475C152 105.044 149.116 109.849 141.661 109.849ZM101.993 68.5008C88.7703 68.5008 79.6346 77.1548 78.1912 89.4174H124.591C122.428 78.3566 114.734 68.5008 101.993 68.5008Z" fill="white"/>
</svg>
