<svg width="200" height="200" viewBox="0 0 200 200" fill="none" xmlns="http://www.w3.org/2000/svg">
<circle cx="100" cy="100" r="100" fill="black"/>
<path fill-rule="evenodd" clip-rule="evenodd" d="M117.875 88.7683C118.975 92.0689 122.056 94.0493 125.356 94.0493C126.236 94.0493 127.116 93.8292 127.997 93.6092C132.177 92.0689 134.378 87.4481 132.837 83.2673C130.197 76.006 124.916 70.285 116.995 66.7643C113.034 65.004 108.193 66.7643 106.213 70.725C104.452 74.6858 106.213 79.5266 110.173 81.507C114.354 83.2673 116.775 85.6878 117.875 88.7683Z" fill="white"/>
<path fill-rule="evenodd" clip-rule="evenodd" d="M161.662 84.8076C157.262 60.3831 139.878 43 115.014 38.1591C110.613 37.2789 106.432 40.1395 105.552 44.5403C104.672 48.9411 107.533 53.1218 111.933 54.002C130.417 57.5226 142.519 69.8449 145.82 87.4481C146.48 91.4088 150 94.0493 153.741 94.0493C154.181 94.0493 154.621 94.0493 155.061 93.8292C159.462 93.1691 162.323 88.9884 161.662 84.8076Z" fill="white"/>
<path fill-rule="evenodd" clip-rule="evenodd" d="M94.7705 118.474C87.5092 118.474 81.3481 112.533 81.3481 105.051C81.3481 97.79 87.2892 91.6288 94.7705 91.6288C99.1713 91.6288 102.912 88.1082 102.912 83.4874C102.912 78.8665 99.3914 75.3459 94.7705 75.3459C78.4876 75.3459 65.2852 88.5483 65.2852 104.831C65.2852 121.114 78.4876 134.317 94.7705 134.317C111.053 134.317 124.256 121.114 124.256 104.831C124.256 100.43 120.735 96.6898 116.114 96.6898C111.494 96.6898 107.973 100.21 107.973 104.831C107.973 112.533 102.032 118.474 94.7705 118.474Z" fill="white"/>
<path fill-rule="evenodd" clip-rule="evenodd" d="M143.399 97.1298C138.998 97.1298 135.258 100.65 135.258 105.271C135.258 127.715 116.994 145.979 94.5503 145.979C72.3263 145.759 54.0629 127.715 54.0629 105.271C54.0629 82.8272 72.3263 64.5639 94.7703 64.5639C99.1711 64.5639 102.912 61.0433 102.912 56.4224C102.912 51.8016 99.3912 48.2809 94.7703 48.2809C63.5246 48.501 38 74.0256 38 105.271C38 136.517 63.5246 162.042 94.7703 162.042C126.016 162.042 151.541 136.517 151.541 105.271C151.321 100.871 147.8 97.1298 143.399 97.1298Z" fill="white"/>
</svg>
