<svg width="200" height="200" viewBox="0 0 200 200" fill="none" xmlns="http://www.w3.org/2000/svg">
<circle cx="100" cy="100" r="100" fill="#CF4044"/>
<path d="M65.574 117.974L88.5505 64.2588H104.903V136.5H90.4128V89.5117L71.0593 136.5H60.0886L40.6306 89.5117V136.5H26.1414V64.2588H42.5974L65.574 117.974Z" fill="white"/>
<path fill-rule="evenodd" clip-rule="evenodd" d="M146.344 64.2588C151.933 64.2588 156.695 65.2588 160.628 67.2598C164.561 69.1917 167.493 71.8486 169.425 75.2295C171.426 78.5414 172.427 82.2673 172.427 86.4072C172.427 91.1681 171.046 95.4808 168.286 99.3447C165.526 103.139 161.421 105.761 155.97 107.21L173.255 136.5H156.488L140.549 108.349H133.719V136.5H119.228V64.2588H146.344ZM133.719 97.4814H145.827C149.76 97.4814 152.693 96.5503 154.625 94.6875C156.557 92.7556 157.522 90.0987 157.522 86.7178C157.522 83.4059 156.557 80.8525 154.625 79.0586C152.693 77.1957 149.76 76.2646 145.827 76.2646H133.719V97.4814Z" fill="white"/>
</svg>
