<svg width="200" height="200" viewBox="0 0 200 200" fill="none" xmlns="http://www.w3.org/2000/svg">
<circle cx="100" cy="100" r="100" fill="black"/>
<path d="M132.228 64.002C132.354 64.011 132.49 64.0114 132.62 64.0234C132.917 64.0524 133.212 64.1026 133.501 64.1738C133.532 64.1799 133.562 64.1913 133.592 64.1943C133.853 64.2642 134.108 64.3525 134.357 64.457L134.447 64.4932C134.662 64.5911 134.869 64.7046 135.067 64.833L135.175 64.8994C135.275 64.9686 135.362 65.0467 135.456 65.125C135.876 65.461 136.214 65.8888 136.445 66.375C136.675 66.8611 136.792 67.3937 136.787 67.9316C136.784 68.0579 136.78 68.1873 136.768 68.3076C136.738 68.6386 136.678 68.9698 136.564 69.3008C136.534 69.4031 136.485 69.4936 136.443 69.5869C136.392 69.6953 136.35 69.8069 136.292 69.9063L136.172 70.084C136.085 70.2044 136.003 70.3339 135.901 70.4453H135.898C135.085 71.3574 133.824 71.7696 132.592 71.9502C132.047 72.0345 131.548 72.083 131.177 72.1553L131.096 72.167C131.069 72.17 131.051 72.1825 131.036 72.1855C130.941 72.2073 130.848 72.2371 130.758 72.2754C130.743 72.2874 130.713 72.2969 130.713 72.2969C130.617 72.345 130.551 72.4023 130.527 72.4775C130.518 72.5105 130.527 72.5345 130.518 72.5645C130.515 72.5824 130.5 72.5827 130.497 72.6006C130.476 72.6909 130.5 72.7787 130.497 72.8721C130.488 73.0224 130.47 73.1758 130.494 73.3262C130.518 73.4707 130.575 73.6096 130.626 73.748C130.66 73.8473 130.69 73.9466 130.738 74.0488C130.838 74.2484 130.953 74.4409 131.081 74.624L131.166 74.7568C131.34 75.0006 131.52 75.2327 131.701 75.4434L131.731 75.4766L131.744 75.4854C132.215 75.9127 132.648 76.381 133.038 76.8848L133.3 77.2314C133.617 77.6585 133.916 78.0984 134.197 78.5498L134.366 78.8154C134.759 79.4702 135.124 80.141 135.461 80.8262L135.654 81.2119C135.967 81.8742 136.26 82.5481 136.531 83.2314C136.838 84.0014 137.119 84.7822 137.374 85.5713L137.463 85.8691C137.606 86.3241 137.737 86.783 137.855 87.2451V87.2539C138.377 89.2014 138.672 91.2034 138.734 93.2188C138.74 93.598 138.734 93.9802 138.713 94.3564V94.6367C138.68 95.1816 138.623 95.7085 138.539 96.2354L138.586 95.9287C138.577 95.9827 138.578 96.0456 138.566 96.1025V96.1055L138.617 96.0879C138.626 96.0849 138.635 96.0791 138.647 96.0791L138.912 95.9043L139.114 95.7744L139.37 95.6035L139.387 95.5938C139.17 99.4204 137.548 102.567 136.196 102.979C135.151 108.007 133.164 111.966 130.777 112.463C127.044 121.645 122.678 125.837 118.614 127.438C118.228 127.598 117.701 127.8 117.153 128.05C116.178 128.495 115.133 129.095 114.703 129.871C113.823 131.407 111.616 133.593 109.614 134.869C108.443 136.778 107.392 138.877 107.067 140.542C107.034 140.723 107.001 140.905 106.14 143.884L102.906 143.908C103.836 140.9 103.918 140.68 104.005 140.448C104.544 138.953 104.944 137.411 105.198 135.842C104.295 135.122 104.857 132.972 105.155 131.825L105.17 131.766C104.026 132.684 102.822 135.634 100.853 136.787C99.0345 141.023 98.9323 144.008 98.7817 145.287L94.8589 145.205C96.2257 142.516 97.2011 136.344 97.0386 134.869C96.8578 132.744 95.0123 131.6 93.9585 131.088C92.8716 130.582 90.7395 129.612 89.0083 127.149L89.4243 127.271C89.8353 127.364 90.2254 127.612 90.228 127.613C90.117 127.428 90.0569 127.218 90.0532 127.002C90.0496 126.786 90.1019 126.573 90.2065 126.385C91.0587 124.886 93.9644 126.984 93.9644 126.984C94.6237 124.826 94.4882 123.582 96.0112 122.589C96.499 123.522 98.4229 124.627 99.272 124.693C100.112 117.928 107.013 110.133 107.594 109.646C103.536 111.979 98.6187 117.043 98.1099 122.547C97.2488 122.486 95.8696 120.159 95.8696 119.526C95.5265 119.743 95.2075 119.987 94.9155 120.249C94.0756 121.026 93.4252 122.013 92.9585 122.901C92.5822 123.633 92.3293 124.308 92.1577 124.76C91.9973 124.557 91.8706 124.33 91.7817 124.088C91.1435 122.682 91.3271 121.254 91.7817 120.149C86.2841 123.78 84.2004 129.285 84.6821 131.519C83.9084 130.474 83.5983 129.028 83.4478 127.764C83.3033 126.553 83.2793 125.211 83.7339 124.055C83.3154 124.157 82.9359 124.461 82.6138 124.732C81.4245 125.732 80.5302 127.096 79.7534 128.427C79.5216 126.988 79.7267 125.401 79.9585 123.977C80.2325 122.312 80.6658 120.43 81.7798 119.114C79.5368 120.081 77.3842 121.869 76.5894 124.263C76.1769 122.607 76.523 120.65 76.9927 119.048C77.0499 118.858 77.1345 118.686 77.2007 118.506C77.6372 117.214 78.2601 116.007 79.064 114.923C79.0759 114.914 79.091 114.887 79.1118 114.863C79.1479 114.815 79.1901 114.773 79.2231 114.728C79.9406 113.783 80.7853 112.943 81.7319 112.229C79.6997 112.069 77.8416 113.135 76.1616 114.144C78.4226 109.649 82.776 106.442 87.0542 104.058C86.0549 103.838 84.875 104.114 83.9058 104.304C82.6258 104.537 81.4002 105.007 80.2925 105.689C82.0025 103.447 84.5945 102.085 87.1265 100.992C91.0736 99.2971 95.2081 98.0448 99.0317 96.0547C98.9264 95.543 98.8387 95.0373 98.7153 94.5195C101.296 92.8726 103.71 90.891 104.954 88.0127C106.67 84.0416 107.037 79.3687 111.289 77.3516C111.258 77.3636 112.231 74.6483 116.226 70.7012C117.334 69.6053 118.496 68.8404 119.76 68.2383C119.767 68.7901 119.693 69.3399 119.541 69.8701C119.589 69.834 119.571 69.8193 119.565 69.8584C121.739 68.0611 123.701 66.7543 125.459 65.833C125.901 65.6048 126.351 65.3934 126.809 65.2002C127.774 64.7837 128.776 64.4587 129.801 64.2305C130.448 64.0868 131.108 64.0085 131.77 63.9961C131.927 63.9961 132.077 63.9959 132.228 64.002ZM134.869 67.4043C134.575 67.4043 134.293 67.5209 134.085 67.7285C133.878 67.9363 133.76 68.2188 133.76 68.5127C133.76 68.8064 133.878 69.0882 134.085 69.2959C134.293 69.5035 134.575 69.6201 134.869 69.6201C135.162 69.6201 135.444 69.5036 135.652 69.2959C135.86 69.0882 135.977 68.8064 135.977 68.5127C135.977 68.2188 135.86 67.9363 135.652 67.7285C135.444 67.5209 135.162 67.4043 134.869 67.4043Z" fill="white"/>
<path fill-rule="evenodd" clip-rule="evenodd" d="M77.6638 114.573C78.3604 113.58 78.6502 113.746 79.6033 112.996C76.98 113.412 75.6653 114.652 73.7062 115.73C75.8018 111.248 79.3503 107.671 83.5426 105.171C83.5426 105.171 81.3071 105.423 80.3275 105.962C79.0826 106.255 77.9259 107.308 76.8757 108.034C78.2701 104.542 83.9221 101.226 86.4131 100.055C90.3042 98.2452 92.6852 97.9153 96.4416 95.8212C96.3796 95.5741 95.9042 94.8799 95.8634 93.8424C96.2862 93.0687 97.8053 92.5253 97.7347 92.2729C96.3959 87.5739 94.3111 83.8267 91.3294 79.8732C86.503 73.4493 76.2154 65.1489 60.9293 68.5039L62.0667 69.5379L62.3134 69.7572C61.9765 69.813 61.6403 69.8735 61.3051 69.9384C56.3079 70.8881 51.7301 73.369 48.2061 77.037C48.1879 77.0463 48.1711 77.0581 48.1562 77.0721C47.9968 77.2321 47.8524 77.3914 47.705 77.5509L47.7111 77.5537C47.6708 77.5906 47.6321 77.6293 47.5952 77.6697C47.9394 77.5356 48.309 77.4337 48.666 77.3172C48.9786 77.2206 49.2754 77.1065 49.5946 77.0246C49.9375 76.9328 50.2969 76.8765 50.6525 76.8022C50.9696 76.7446 51.2798 76.6631 51.6035 76.6202C51.9778 76.5603 52.3597 76.5423 52.7441 76.5091C53.0565 76.4848 53.3682 76.4424 53.6871 76.4298C54.0842 76.4142 54.489 76.4405 54.8902 76.4518C55.192 76.4641 55.4958 76.4521 55.8011 76.4763C56.2184 76.5141 56.6281 76.5884 57.0434 76.6534C57.3285 76.6995 57.6126 76.7214 57.8922 76.7828C58.3235 76.8713 58.7448 77.0114 59.1656 77.1364C59.4187 77.2139 59.6768 77.264 59.9274 77.3536C60.395 77.522 60.8376 77.7426 61.2829 77.9571C61.4703 78.0492 61.6687 78.1137 61.8503 78.212C62.4692 78.5493 63.0631 78.9387 63.6227 79.3777C64.4563 80.1193 65.2511 80.8684 66.0222 81.6275C64.8944 81.4725 63.7603 81.3683 62.6232 81.3152C54.7961 81.0324 46.682 82.4151 43.8398 86.8385C46.0484 86.1491 49.3238 85.6949 49.3238 85.6949C45.3411 86.6289 40.7865 90.2609 37.9746 94.7646C36.6226 96.9329 35.4293 101.759 35.2975 103.77C35.2502 104.483 35.2806 105.103 35.2827 105.157C38.1275 98.3471 47.7719 99.1009 47.7719 99.1009C47.7719 99.1009 47.365 99.5568 47.1306 99.8794C46.4242 100.841 46.2009 101.676 45.7429 103.055C48.5766 100.178 51.2521 99.2563 55.289 99.5465C52.516 100.825 50.6255 102.171 48.9088 104.184C48.9088 104.184 50.0216 103.595 50.9252 103.433C51.8285 103.265 51.7123 103.375 51.7123 103.375C51.3271 103.692 42.6348 109.758 43.2093 117.856L43.2108 117.895C45.5375 113.772 50.8968 109.991 57.8078 109.813C58.1542 109.808 58.4859 109.816 58.8323 109.814C58.3529 110.463 57.9362 111.155 57.5879 111.882C56.8543 113.457 56.7006 116.214 57.2108 117.772C58.995 114.105 61.7824 111.506 67.3253 112.78C66.3607 113.379 65.4442 114.053 64.5843 114.795L64.4942 114.88L64.471 114.902C62.9954 116.225 61.7236 117.827 60.9063 119.724C59.9186 122.038 59.6268 124.809 60.5077 128.131C60.5185 128.176 60.5319 128.212 60.5397 128.257C61.5006 125.643 64.7794 121.597 68.5309 119.533C72.1558 117.543 75.2613 117.53 76.1442 117.607C76.2632 117.13 76.4044 116.716 77.2035 115.592" fill="white"/>
<mask id="mask0_2294_61" style="mask-type:alpha" maskUnits="userSpaceOnUse" x="115" y="55" width="30" height="42">
<path d="M115.792 55H144.545V96.41H115.792V55Z" fill="white"/>
</mask>
<g mask="url(#mask0_2294_61)">
<path fill-rule="evenodd" clip-rule="evenodd" d="M143.845 83.3946C142.454 80.6849 141.924 79.9533 140.057 76.6384C136.989 71.9627 138.868 68.2505 138.552 65.4474C138.323 63.1442 136.589 60.4496 133.262 60.0823C133.043 60.0666 132.834 59.987 132.66 59.8534C132.389 59.6156 132.34 58.9201 131.061 57.7549C129.116 55.9876 126.286 55.0151 125.449 55.0001C125.118 54.9941 125.106 55.2108 125.346 55.7046C125.626 56.2767 126.307 58.5016 126.262 60.1214C126.247 60.6784 126.015 60.4466 125.9 60.3442C124.365 58.6552 122.047 57.9506 120.21 58.342C120.002 58.3962 119.99 58.5769 120.09 58.6883C121.137 59.7842 122.51 62.3674 122.402 63.1352C122.357 63.4001 122.119 63.3279 122.02 63.2857C118.816 61.8165 116.507 63.7614 115.817 64.9597C115.685 65.2006 116.097 65.2307 116.233 65.2307C118.075 65.2668 121.626 64.2759 120.5 68.5C121 68 121 67.9265 121.5 67.5C132.7 57.9469 137.5 64.9441 137.5 68C137.575 70.4146 135.743 71.5563 134.249 72.038C132.75 72.5197 131.112 72.3692 130.977 72.8449C130.691 73.8685 132.311 74.8199 133.142 75.8376C136.703 79.0591 140.789 87.1903 139.744 94.4071L140.817 94.383C141.362 94.0097 141.611 94.6368 142.321 92.9357C142.577 92.3215 142.661 91.2497 142.427 89.9009C144.371 89.2174 145.281 86.2337 143.842 83.3916" fill="white"/>
</g>
<path fill-rule="evenodd" clip-rule="evenodd" d="M140.962 71.7037C141.1 68.8074 143.419 65.2366 145.863 64.4177C143.295 63.4392 140.58 64.4116 139.691 64.8151C140.029 67.6332 138.014 71.3515 141.317 76.0392C141.865 73.6728 144.259 71.502 148.42 71.6555C147.005 70.5235 143.259 70.0297 140.962 71.7037" fill="white"/>
<path fill-rule="evenodd" clip-rule="evenodd" d="M168.104 144.7C167.672 144.816 167.248 144.963 166.837 145.139C167.267 144.727 167.68 144.372 168.08 144.07C168.691 143.604 169.019 143.348 168.959 143.23C168.899 143.116 168.64 143.14 168.176 143.261C167.409 143.447 166.454 143.802 165.638 144.344C165.367 144.51 164.931 144.766 164.563 145.013C165.054 144.387 165.521 143.83 165.985 143.399C166.517 142.917 166.822 142.583 166.728 142.487C166.484 142.252 165.316 142.89 164.413 143.495C163.451 143.59 162.506 143.818 161.607 144.173C160.958 144.426 160.327 144.724 159.719 145.064C160.902 144.11 161.905 143.348 162.838 142.866C163.483 142.547 163.868 142.306 163.799 142.189C163.558 141.788 161.219 142.499 160.336 142.908C159.743 143.18 159.171 143.495 158.623 143.851C158.936 143.106 159.145 142.322 159.243 141.52C159.322 140.677 159.253 140.253 159.093 140.22C158.942 140.196 158.563 140.554 158.081 141.433C157.714 142.059 157.223 142.728 156.636 143.45C157.314 142.237 157.94 141.237 158.587 140.494C159.039 139.961 159.298 139.512 159.213 139.443C159.111 139.362 158.22 139.633 156.224 141.448C155.57 142.074 154.89 143.065 154.161 144.26C154.378 143.363 154.601 142.562 154.86 141.858C155.269 141.535 155.661 141.255 156.046 141.015C157 140.452 157.262 140.175 157.172 140.039C157.082 139.91 156.594 139.967 155.781 140.123C155.709 140.138 155.622 140.159 155.528 140.175C155.603 139.882 155.597 139.648 155.408 139.572C155.167 139.479 154.565 139.964 153.951 140.68C153.671 140.801 153.379 140.936 153.086 141.102C152.472 141.433 151.834 141.855 151.181 142.339C151.175 142.324 151.166 142.306 151.163 142.288C151.714 141.578 152.234 140.978 152.749 140.497C153.315 139.994 153.64 139.572 153.58 139.467C153.511 139.347 152.728 139.633 152.159 139.91C151.598 140.192 151.066 140.527 150.569 140.912C150.374 140.485 150.151 140.072 149.901 139.675V139.669C149.451 138.937 148.915 138.262 148.305 137.658C147.634 136.989 147.24 136.736 147.122 136.796C147.05 136.833 147.062 137.176 147.604 138.154C148.191 139.244 148.649 140.605 149.133 142.249L149.013 142.378C148.771 141.989 148.502 141.617 148.209 141.264L148.206 141.258C147.631 140.584 146.968 139.989 146.234 139.491C146.619 138.907 146.758 138.543 146.662 138.479C146.529 138.404 145.897 138.708 145.207 139.226C144.876 139.467 144.563 139.744 144.259 140.039C144.178 139.97 144.105 139.898 144.033 139.831L144.024 139.825C143.043 138.898 141.332 137.829 141.116 138.094C141.061 138.16 141.11 138.383 141.757 139.048C142.091 139.392 142.416 139.789 142.738 140.235C142.383 140.4 141.865 140.722 141.335 141.144C141.185 141.165 141.036 141.197 140.89 141.24L140.649 141.31C140.55 141.201 140.447 141.099 140.348 140.999V140.996C140.254 140.899 140.158 140.803 140.059 140.71L140.092 140.662C140.435 140.232 140.896 139.714 140.815 139.593C140.736 139.464 140.044 139.81 139.484 140.226C138.493 139.446 137.265 138.747 137.078 138.988C137.024 139.07 137.187 139.443 137.822 140.123C138.057 140.394 138.295 140.689 138.535 141.018C138.406 141.142 138.281 141.271 138.159 141.403L138.123 141.373H138.117C137.972 141.253 137.823 141.137 137.671 141.027C137.222 140.258 136.717 139.523 136.16 138.829C134.965 137.347 133.014 136.101 132.833 136.33C132.722 136.459 132.857 136.887 133.435 137.642C134.206 138.681 134.929 140.099 135.769 141.845C135.533 141.976 135.303 142.117 135.079 142.267C134.569 141.898 134.025 141.579 133.453 141.316C133.531 141.218 133.6 141.113 133.658 141.002C133.751 140.792 133.613 140.804 133.574 140.81C133.182 140.882 132.502 141.31 131.873 141.818C131.878 141.753 131.868 141.687 131.843 141.626C131.77 141.454 131.538 141.433 131.409 141.433C131.342 141.433 131.276 141.438 131.21 141.448C130.93 141.043 130.607 140.67 130.247 140.334C130.768 139.807 131.171 139.38 131.117 139.289C131.051 139.187 130.418 139.208 129.449 139.786C129.26 139.686 129.051 139.63 128.838 139.624C128.772 139.624 128.6 139.624 128.591 139.807C128.595 139.98 128.627 140.151 128.687 140.313C127.385 141.343 126.323 142.645 125.577 144.128C125.53 144.112 125.481 144.099 125.433 144.089C125.689 143.095 125.932 142.264 126.227 141.611L126.303 141.448C126.52 140.957 126.917 140.256 126.736 140.172C126.498 140.063 124.984 141.686 124.397 142.869L124.388 142.875C124.34 142.972 124.289 143.065 124.243 143.161C124.175 142.882 124.102 142.604 124.024 142.327L124.021 142.312C123.623 140.539 121.437 137.384 121.025 137.621C120.947 137.667 120.916 137.775 120.995 138.151C121.07 138.491 121.212 138.91 121.35 139.313C121.492 139.717 121.621 140.096 121.681 140.397C121.847 141.12 122.043 142.312 122.277 143.818C122.247 143.766 122.229 143.715 122.205 143.661L122.202 143.655C121.711 142.562 120.585 141.144 120.064 140.897C119.884 140.813 119.872 140.897 119.893 141.012C119.923 141.177 120.034 141.427 120.161 141.713C120.239 141.894 120.329 142.098 120.423 142.324C120.679 142.959 120.883 143.76 121.085 144.715C120.546 143.637 119.923 142.605 119.221 141.626C118.637 140.902 117.925 140.292 117.12 139.825L117.126 139.816C117.62 139.166 117.614 138.793 117.523 138.693C117.252 138.422 115.47 139.335 114.245 140.662C113.88 140.209 113.496 139.771 113.095 139.35C112.119 138.338 110.635 137.661 110.433 137.769C110.334 137.826 110.292 137.91 110.406 138.064C111.433 139.35 112.137 140.43 112.763 141.454C112.224 140.954 111.589 140.455 111.484 140.56C111.375 140.662 111.839 141.532 112.486 142.95L112.48 142.956C112.053 142.166 111.554 141.416 110.99 140.716C110.994 140.712 110.997 140.707 110.999 140.701C111.366 139.675 111.077 139.328 111.077 139.328C111.077 139.328 110.782 139.615 110.385 140.06C110.254 139.931 110.118 139.808 109.975 139.693C109.614 139.392 109.361 139.25 109.274 139.335C109.214 139.395 109.289 139.624 109.433 139.892C109.584 140.172 109.722 140.433 109.846 140.686L109.725 140.837C109.329 140.376 108.904 139.94 108.455 139.53C108.494 139.012 108.557 138.522 108.648 138.049C108.731 137.738 108.785 137.421 108.81 137.101C108.81 137.025 108.654 137.01 108.587 137.07C108.401 137.239 108.088 137.642 107.723 138.389L107.711 138.419C107.302 138.69 106.772 139.172 106.266 139.753C106.203 139.741 106.161 139.744 106.146 139.765L106.137 139.786C105.715 139.913 105.302 140.068 104.902 140.253C104.848 140.02 104.777 139.792 104.691 139.569L104.664 139.488L104.941 139.283C105.544 138.832 106.146 138.501 106.633 138.239C106.925 138.073 107.299 137.862 107.47 137.73C107.564 137.655 107.491 137.594 107.41 137.57C106.862 137.444 105.55 137.63 104.134 138.154C103.421 136.498 103.057 136.357 102.948 136.381C102.84 136.411 102.78 136.745 102.891 137.465C102.957 137.848 103.013 138.232 103.06 138.618C102.864 138.714 102.668 138.817 102.476 138.928L102.464 138.934C102.108 139.115 101.708 139.359 101.259 139.645C101.205 139.208 101.127 138.741 101 138.702C100.886 138.669 100.805 138.762 100.759 138.982C100.67 139.382 100.571 139.779 100.464 140.175C100.236 140.325 100.001 140.488 99.7569 140.656C99.4795 140.192 99.1675 139.749 98.8235 139.331C98.0226 138.371 96.8846 137.45 96.2975 137.197C96.0115 137.076 96.0024 137.26 96.0958 137.465C96.2162 137.736 96.445 138.082 96.7521 138.525C97.008 138.898 97.2399 139.277 97.4566 139.681C96.7518 139.365 96.0177 139.12 95.2648 138.949C95.1144 138.649 94.9434 138.359 94.753 138.082C94.3164 137.435 93.9882 137.119 93.8798 137.167C93.8016 137.203 93.7233 137.576 94.0695 138.543C94.0977 138.618 94.1208 138.696 94.1388 138.775C93.9146 138.755 93.6889 138.765 93.4674 138.805C93.3831 138.826 93.3168 138.886 93.4041 138.964C93.5727 139.1 93.9491 139.307 94.2441 139.47L94.2562 139.479C94.3043 139.795 94.3495 140.168 94.3856 140.587C94.2609 140.488 94.1323 140.393 94.0003 140.304C93.8557 139.792 93.7564 139.485 93.6781 139.479C93.6089 139.479 93.5456 139.681 93.4945 139.982C93.4011 139.931 93.3138 139.876 93.2175 139.831C93.0613 139.061 92.8031 138.315 92.4497 137.612C92.0764 136.866 91.7663 136.462 91.5856 136.291C91.5164 136.23 91.3538 136.248 91.3538 136.321C91.3538 136.477 91.411 136.772 91.5224 137.272C91.6428 137.88 91.7091 138.519 91.7392 139.205C91.6529 139.187 91.5653 139.177 91.4773 139.175C91.411 139.175 91.3147 139.187 91.3929 139.289C91.4622 139.374 91.5736 139.488 91.694 139.621C91.1492 140.11 90.6383 140.636 90.1646 141.195C90.0891 141.166 90.0116 141.143 89.9327 141.126C89.9207 141.111 89.9086 141.105 89.8966 141.096C90.0863 140.554 90.3181 140.003 90.6613 139.374C90.8089 139.103 90.8841 138.877 90.8209 138.82C90.7336 138.732 90.4837 138.877 90.1224 139.175C89.8304 139.412 89.5594 139.674 89.3125 139.958C88.765 140.254 88.2477 140.603 87.768 140.999L87.5873 140.765C88.1985 139.771 88.891 138.717 89.8815 137.483C90.002 137.326 89.9568 137.242 89.8514 137.182C89.6467 137.079 88.1654 137.754 87.1959 138.768C86.9551 139.018 86.7232 139.274 86.5005 139.533C85.2961 138.371 83.7607 137.618 83.5138 137.868C83.4205 137.968 83.4174 138.341 83.9142 138.991C83.9835 139.088 84.4983 139.774 85.0222 140.548C84.4086 140.869 83.8422 141.273 83.3392 141.749C82.5765 142.541 81.8703 143.385 81.2256 144.275C81.9392 143.002 82.6768 141.683 83.9112 140.039C84.0196 139.882 83.9985 139.675 83.5559 139.837C82.7003 140.214 81.923 140.748 81.2647 141.412C80.5099 142.259 79.8215 143.163 79.2054 144.116C79.4101 143.17 79.6118 142.375 79.8677 141.746C79.9503 141.541 80.0366 141.337 80.1267 141.135C80.2392 140.908 80.3299 140.671 80.3976 140.427C80.4157 140.316 80.4067 140.232 80.223 140.319C79.7022 140.56 78.5761 141.975 78.0914 143.077L78.0854 143.08C77.7384 143.788 77.4386 144.518 77.1882 145.266L77.2845 144.986C77.9529 143.116 78.4768 141.319 78.8351 140.494C78.9495 140.208 79.1452 139.861 79.3589 139.491C79.5697 139.121 79.7925 138.738 79.925 138.413C80.0725 138.064 80.0574 137.953 79.9912 137.892C79.6299 137.576 76.8991 140.271 76.1796 141.939L76.1735 141.948C76.0983 142.098 76.029 142.249 75.9538 142.409L75.8996 142.294H75.8965C75.3034 141.108 73.789 139.479 73.5542 139.59C73.3675 139.675 73.7649 140.379 73.9877 140.867L74.057 141.03C74.2858 141.532 74.4845 142.144 74.6772 142.845C74.5765 142.874 74.4779 142.911 74.3821 142.953C74.0493 142.379 73.6664 141.835 73.238 141.328C72.7503 140.751 72.1942 140.235 71.5821 139.792C71.6516 139.611 71.6902 139.42 71.6965 139.226C71.6875 139.045 71.5159 139.045 71.4497 139.045C71.1973 139.057 70.9514 139.129 70.7331 139.256C69.4535 138.561 68.4329 138.504 68.2643 138.672C68.0896 138.844 68.8062 139.241 69.0952 139.374C69.3662 139.5 69.6492 139.657 69.9383 139.855C69.6192 140.164 69.3317 140.504 69.0802 140.87C69.0128 140.856 68.9442 140.849 68.8755 140.849C68.746 140.849 68.5202 140.879 68.4419 141.048C68.4174 141.107 68.4081 141.171 68.4148 141.234C67.7886 140.725 67.1021 140.301 66.7137 140.229C66.6716 140.22 66.5331 140.211 66.6294 140.424C66.6869 140.534 66.7555 140.636 66.8342 140.732C66.3464 140.945 65.5997 141.394 65.2053 141.686C65.0993 141.615 64.9919 141.545 64.8832 141.478C65.7563 140.175 66.5331 139.106 67.2918 138.317C67.9692 137.642 68.1589 137.239 68.0716 137.098C67.918 136.845 65.8225 137.82 64.4436 139.133C64.2479 139.307 64.0522 139.503 63.8565 139.705C63.2567 140.006 62.6905 140.371 62.1675 140.792L62.1645 140.795L62.1283 140.819C62.0063 140.688 61.8797 140.562 61.749 140.439C61.9928 140.108 62.2307 139.81 62.4655 139.545C63.0978 138.862 63.2664 138.491 63.2062 138.407C63.0255 138.16 61.7971 138.868 60.8036 139.648C60.2466 139.232 59.5511 138.88 59.4698 139.009C59.3915 139.13 59.8492 139.651 60.1924 140.081L60.2316 140.129C60.1328 140.22 60.0374 140.315 59.9455 140.412L59.9365 140.421C59.8355 140.52 59.7371 140.622 59.6414 140.725C59.4139 140.657 59.1827 140.6 58.949 140.557C58.6589 140.329 58.3563 140.118 58.0427 139.925C58.3448 139.573 58.6665 139.238 59.0062 138.922C59.6986 138.305 59.7679 138.091 59.7137 138.019C59.518 137.739 57.7386 138.681 56.6909 139.542L56.6879 139.548C56.3748 139.789 56.0556 140.081 55.7335 140.409C55.3722 140.069 54.9808 139.747 54.5804 139.47C54.8212 139.142 55.2337 138.585 55.0862 138.428C55.0019 138.344 54.5021 138.612 53.912 139.052C53.2827 138.693 52.7498 138.504 52.6384 138.585C52.5481 138.66 52.7287 139.033 53.2074 139.624C52.8672 139.925 52.536 140.253 52.2741 140.587H52.2681C51.9324 140.997 51.6265 141.431 51.3528 141.885C51.2441 141.766 51.1337 141.648 51.0216 141.532C51.398 140.343 51.7743 139.331 52.235 138.482C52.7679 137.507 52.7859 137.167 52.7137 137.125C52.5932 137.064 52.2079 137.32 51.5274 137.986C50.9313 138.579 50.3532 139.313 49.9438 139.997L49.9408 140.003C49.8655 140.111 49.7993 140.226 49.73 140.34C49.2288 139.952 48.6914 139.613 48.1253 139.328C47.5593 139.051 46.7734 138.762 46.7072 138.886C46.647 138.991 46.9722 139.413 47.5412 139.916C47.9567 140.307 48.3752 140.771 48.8117 141.319C47.9275 140.864 47.0059 140.486 46.0569 140.19C45.7949 139.982 45.5752 139.876 45.4547 139.925C45.409 139.942 45.3693 139.972 45.3403 140.012C44.7335 139.891 44.1165 139.829 43.4977 139.825H43.3833C42.3536 139.061 41.8569 138.931 41.7876 138.988C41.7124 139.048 41.9171 139.437 42.2995 139.907C42.2031 139.931 42.1399 139.967 42.1188 140.012C42.0706 140.123 42.2453 140.283 42.8113 140.524C43.3231 141.198 43.8289 142.032 44.3739 143.002C43.3489 142.437 42.2747 141.966 41.1644 141.596C40.2059 141.299 39.211 141.135 38.2078 141.111C37.3648 141.111 36.9584 141.201 36.9433 141.34C36.9313 141.46 37.3227 141.749 38.2379 142.074C39.0388 142.378 39.924 142.839 40.9025 143.408C40.2401 143.324 39.6951 143.33 39.6048 143.522L39.5988 143.538C39.2797 143.408 38.9786 143.279 38.6745 143.17C37.6518 142.784 36.5749 142.561 35.4831 142.508C34.9622 142.484 34.6913 142.511 34.6551 142.661C34.625 142.788 35.1128 143.098 35.8745 143.402C36.3863 143.622 36.9283 143.914 37.5033 144.263C36.4134 143.965 34.6732 143.679 34.5076 144.031C34.4865 144.067 34.5196 144.116 34.5799 144.17C34.1186 144.062 33.6473 144.004 33.1738 143.995C32.6951 143.995 32.4422 144.025 32.4031 144.152C32.382 144.254 32.6199 144.384 33.0685 144.582C32.8361 144.564 32.6031 144.554 32.37 144.552C31.4306 144.552 30.994 144.627 31.0001 144.817C31.0031 144.932 31.3312 145.118 31.9936 145.284H164.184L168.688 145.287C169.263 144.965 169.522 144.706 169.492 144.594C169.45 144.414 169.001 144.456 168.104 144.7" fill="white"/>
</svg>
