<svg width="200" height="200" viewBox="0 0 200 200" fill="none" xmlns="http://www.w3.org/2000/svg">
<circle cx="100" cy="100" r="100" fill="#CF4044"/>
<path d="M100.5 29C139.988 29 172 61.0116 172 100.5C172 139.988 139.988 172 100.5 172C61.0116 172 29 139.988 29 100.5C29 61.0116 61.0116 29 100.5 29ZM71.123 144.019C79.5067 149.689 89.6168 153 100.5 153C111.276 153 121.292 149.752 129.627 144.184L100.292 114.849L71.123 144.019ZM115.849 99.292L144.971 128.414C150.057 120.328 153 110.758 153 100.5C153 89.6168 149.689 79.5067 144.019 71.123L115.849 99.292ZM56.8154 71.3721C51.247 79.7067 48 89.7241 48 100.5C48 110.65 50.881 120.127 55.8691 128.159L84.7354 99.292L56.8154 71.3721ZM100.5 48C90.2419 48 80.671 50.942 72.585 56.0283L100.292 83.7354L128.159 55.8691C120.127 50.881 110.65 48 100.5 48Z" fill="white"/>
</svg>
