<svg width="200" height="200" viewBox="0 0 200 200" fill="none" xmlns="http://www.w3.org/2000/svg">
<circle cx="100" cy="100" r="100" fill="#409C8C"/>
<path d="M100.08 160.443C66.882 160.443 39.6837 133.111 39.6837 99.9132C39.6837 92.4469 41.017 85.3808 43.5501 78.7146L78.8812 149.777C79.2812 150.71 79.9478 151.51 81.0145 151.51C82.0809 151.51 82.7476 150.71 83.1476 149.777L99.4132 113.379C99.5465 112.979 99.8131 112.579 100.213 112.579C100.613 112.579 100.746 112.979 101.013 113.379L117.279 149.777C117.679 150.71 118.345 151.51 119.412 151.51C120.478 151.51 121.145 150.71 121.545 149.777L156.876 78.7146C159.409 85.3808 160.742 92.4469 160.742 99.9132C160.476 133.111 133.278 160.443 100.08 160.443ZM100.08 86.1807C99.6798 86.1807 99.5465 85.7808 99.2798 85.3808L80.3478 42.7169C86.4806 40.4504 93.147 39.2505 100.08 39.2505C107.013 39.2505 113.679 40.4504 119.812 42.7169L100.88 85.3808C100.613 85.9141 100.48 86.1807 100.08 86.1807ZM80.7478 130.044C80.3478 130.044 80.2145 129.644 79.9478 129.245L49.2831 67.3821C54.7494 58.9826 62.0823 51.9163 71.015 46.9833L93.147 96.1802C93.4136 96.98 94.0801 97.2466 94.7468 97.2466H105.413C106.213 97.2466 106.746 97.1133 107.146 96.1802L129.278 46.9833C138.077 51.9163 145.543 58.9826 151.01 67.3821L120.078 129.245C119.945 129.644 119.678 130.044 119.278 130.044C118.878 130.044 118.745 129.644 118.479 129.245L106.879 102.846C106.479 101.913 105.946 101.78 105.146 101.78H94.4801C93.6801 101.78 93.147 101.913 92.747 102.846L81.5476 129.245C81.4143 129.644 81.1476 130.044 80.7478 130.044ZM100.08 166.576C137.011 166.576 166.742 136.844 166.742 99.9132C166.742 62.9823 137.011 33.2509 100.08 33.2509C63.1489 33.2509 33.4175 62.9823 33.4175 99.9132C33.4175 136.844 63.1489 166.576 100.08 166.576Z" fill="white"/>
</svg>
