<svg width="200" height="200" viewBox="0 0 200 200" fill="none" xmlns="http://www.w3.org/2000/svg">
<circle cx="100" cy="100" r="100" fill="#409C8C"/>
<path d="M95.8677 123.992C107.824 108.694 117.229 90.7227 117.229 77.8161C117.229 71.0707 112.368 66.3626 106.03 62.785C106.154 76.8101 101.267 109.697 95.8677 123.992Z" fill="white"/>
<path d="M56.6592 161.687C84.6828 152.369 125.307 130.659 153.561 111.264C155.932 109.642 157.779 108.136 157.779 105.5C157.779 100.918 149.337 94.7757 145.24 92.33C123.008 115.301 78.7616 149.72 56.6592 161.687Z" fill="white"/>
<path d="M82.6538 142.175C99.9339 130.302 125.037 107.961 133.533 95.806C135.536 92.9464 137.018 91.2896 137.018 88.2972C137.018 83.3901 131.262 79.7976 127.12 77.296C117.197 100.541 94.9032 129.487 82.6538 142.175Z" fill="white"/>
<path d="M98.3975 109.239C100.633 94.56 99.3188 76.8385 96.4656 65.7237C94.9147 59.6709 89.4252 52.8394 84.3457 50.7038C91.0035 69.4858 96.7182 96.2317 98.3975 109.239Z" fill="white"/>
<path d="M93.4764 88.6461C88.2407 74.5813 75.1936 45.2635 56 38C68.4941 51.7067 87.0307 78.9043 93.4764 88.6461Z" fill="white"/>
</svg>
