<svg width="141" height="34" viewBox="0 0 141 34" fill="none" xmlns="http://www.w3.org/2000/svg">
<path d="M40.2127 11.3159H37.0134C36.8135 11.3159 36.6443 11.4773 36.6443 11.668V20.3298H27.0079V11.668C27.0079 11.4773 26.8464 11.3159 26.6388 11.3159H23.4395C23.2395 11.3159 23.0703 11.4773 23.0703 11.668V33.0403C23.0703 33.231 23.2318 33.3923 23.4395 33.3923H26.6388C26.8464 33.3923 27.0079 33.2383 27.0079 33.0403V23.9824H36.6443V33.0403C36.6443 33.231 36.8058 33.3923 37.0134 33.3923H40.2127C40.4127 33.3923 40.5819 33.2383 40.5819 33.0403V11.668C40.5819 11.4773 40.4204 11.3159 40.2127 11.3159Z" fill="#F87B5E"/>
<path d="M87.2798 31.2439L82.0347 24.5843C84.6034 23.5208 86.4107 21.0711 86.4107 18.2327C86.4107 14.4189 83.1576 11.3091 79.1584 11.3091H70.1758V33.0335C70.1758 33.2315 70.3373 33.3855 70.5449 33.3855H73.7442C73.9442 33.3855 74.1134 33.2315 74.1134 33.0335V25.1564H77.5588L84.1343 33.5029C84.2573 33.6569 84.4881 33.6936 84.6496 33.5762L87.2105 31.7426C87.372 31.6253 87.4105 31.4052 87.2874 31.2512M79.1584 21.5112H74.1134V14.9689H79.1584C80.9888 14.9689 82.4731 16.4945 82.4731 18.2401C82.4731 19.9856 80.9888 21.5112 79.1584 21.5112Z" fill="#F87B5E"/>
<path d="M55.3785 10.9629C48.7953 10.9629 44.0809 16.0749 44.0809 22.3532C44.0809 28.6314 48.7876 33.7434 55.3785 33.7434C61.9694 33.7434 66.676 28.6314 66.676 22.3532C66.676 16.0749 61.9694 10.9629 55.3785 10.9629ZM55.3785 29.9516C50.9871 29.9516 48.18 26.5411 48.18 22.3532C48.18 18.1652 50.9794 14.7548 55.3785 14.7548C59.7775 14.7548 62.5769 18.1652 62.5769 22.3532C62.5769 26.5411 59.7775 29.9516 55.3785 29.9516Z" fill="#F87B5E"/>
<path d="M109.938 11.6673C109.938 11.4767 109.769 11.3153 109.569 11.3153H106.369C106.162 11.3153 106 11.4693 106 11.6673V24.4731L91.7188 11.0586V33.0323C91.7188 33.2304 91.8803 33.3844 92.0879 33.3844H95.2872C95.4872 33.3844 95.6564 33.223 95.6564 33.0323V20.2632L109.938 33.6411V11.6673Z" fill="#F87B5E"/>
<path d="M18.9327 11.3159H1.19044C0.982792 11.3159 0.821289 11.4773 0.821289 11.668V14.7191C0.821289 14.9171 0.982792 15.0711 1.19044 15.0711H8.02741V33.033C8.02741 33.2237 8.18892 33.385 8.39657 33.385H11.7266C11.9343 33.385 12.0958 33.231 12.0958 33.033V15.0711H18.9327C19.1327 15.0711 19.3019 14.9171 19.3019 14.7191V11.668C19.3019 11.4773 19.1404 11.3159 18.9327 11.3159Z" fill="#F87B5E"/>
<path d="M140.821 0.885987C140.821 0.885987 140.798 0.834647 140.775 0.849315L139.745 1.70744C137.599 3.40901 135.846 4.62651 132.739 6.40143C129.316 8.35237 126.409 9.72389 123.271 10.9414C123.125 11.0001 122.987 11.0514 122.841 11.1101C122.518 11.2348 122.256 11.4401 122.072 11.6675C121.979 11.7922 121.903 11.9169 121.849 12.0416C121.703 12.4229 121.772 12.863 121.987 13.3031C122.333 13.9998 123.071 14.2345 123.948 14.0365C125.286 13.7358 129.278 12.2542 131.616 11.1028C130.547 13.6551 129.232 18.7745 128.955 21.3562C128.878 22.0896 128.847 23.0871 130.047 23.3731C130.278 23.4245 130.424 23.4318 130.616 23.4318C130.685 23.4318 130.754 23.4318 130.824 23.4172C131.362 23.3291 131.9 22.9918 132.123 22.2143C132.216 21.9283 132.593 20.3441 132.669 20.0433V20.0287C134.354 13.8311 137.284 6.70214 140.129 2.01548L140.814 0.893322L140.821 0.885987Z" fill="#F87B5E"/>
</svg>
