<svg width="256" height="73" viewBox="0 0 256 73" fill="none" xmlns="http://www.w3.org/2000/svg">
<path d="M70.7261 49.692C68.1026 49.5402 65.5525 48.7364 63.2902 47.3482C61.0279 45.9599 59.1194 44.0277 57.7254 41.7141C59.4069 27.792 64.301 23.4641 70.7763 23.4641C77.2516 23.4641 82.1708 28.6784 82.1708 36.4998C82.1708 44.3212 77.1512 49.5355 70.7763 49.5355M70.7763 14.7562C66.2066 14.5639 61.7172 16.046 58.0929 18.9436C54.4686 21.8411 51.9399 25.9697 50.9489 30.6077C48.8005 25.932 47.1753 21.0158 46.105 15.9555H30.1175V36.552C30.1175 44.0345 26.8548 49.5877 20.4548 49.5877C14.0548 49.5877 10.4155 44.0605 10.4155 36.552V15.9555H1.22966V36.552C1.02119 42.2595 2.91498 47.8349 6.52535 52.1427C8.28758 54.1358 10.4403 55.7139 12.8386 56.7707C15.2369 57.8275 17.8253 58.3385 20.4297 58.2695C31.4979 58.2695 39.2532 49.4312 39.2532 36.7866V22.8645C41.1329 30.3561 44.2402 37.4556 48.4391 43.852L43.5199 72.9998H52.8563L56.094 52.3512C57.1658 53.3098 58.3069 54.1814 59.5073 54.9584C62.6263 57.0046 66.2114 58.1561 69.8979 58.2955H70.7512C73.4936 58.3251 76.2134 57.7781 78.7468 56.6872C81.2803 55.5963 83.5751 53.9843 85.4932 51.948C87.4112 49.9118 88.9128 47.4934 89.9075 44.8386C90.9023 42.1837 91.3696 39.3472 91.2814 36.4998C91.3455 33.6629 90.8598 30.8416 89.8533 28.2035C88.8467 25.5655 87.3399 23.1645 85.4224 21.1434C83.5049 19.1223 81.2157 17.5223 78.6911 16.4385C76.1664 15.3547 73.4578 14.8092 70.7261 14.8345" fill="black"/>
<path d="M202.792 20.492V16.112H193.757V56.8616H202.918V40.9059C202.918 31.077 203.771 24.0116 216.47 24.9241V15.6427C210.547 15.1734 205.929 16.4509 202.792 20.5181" fill="black"/>
<path d="M139.319 16.0862L132.693 44.6083L125.616 16.0862H113.97L106.893 44.6083L100.267 16.0862H91.0055L101.17 56.888H112.163L119.793 27.9226L127.347 56.888H138.34L149.082 16.0862H139.319Z" fill="black"/>
<path d="M169.211 49.7181C162.711 49.7181 157.842 44.3735 157.842 36.6824C157.842 28.9913 162.861 23.6467 169.211 23.6467C175.561 23.6467 180.706 28.6785 180.706 36.4999C180.706 44.3213 175.686 49.5356 169.311 49.5356M169.311 14.7302C166.565 14.6901 163.839 15.2286 161.299 16.3131C158.758 17.3976 156.455 19.0056 154.529 21.0402C152.604 23.0747 151.095 25.4936 150.094 28.1507C149.093 30.8078 148.621 33.648 148.706 36.4999C148.61 39.3615 149.069 42.214 150.057 44.8873C151.044 47.5605 152.54 49.9997 154.455 52.0596C156.37 54.1194 158.664 55.7575 161.201 56.8764C163.739 57.9952 166.467 58.5719 169.224 58.5719C171.98 58.5719 174.708 57.9952 177.246 56.8764C179.783 55.7575 182.077 54.1194 183.992 52.0596C185.907 49.9997 187.403 47.5605 188.39 44.8873C189.378 42.214 189.838 39.3615 189.741 36.4999C189.809 33.6642 189.326 30.8435 188.322 28.2055C187.319 25.5676 185.814 23.1664 183.899 21.1449C181.983 19.1234 179.696 17.523 177.172 16.4389C174.649 15.3548 171.942 14.8092 169.211 14.8345" fill="black"/>
<path d="M229.572 36.8389H231.68L244.455 56.8879H254.77L240.088 34.6489C243.619 33.1364 246.637 30.5654 248.756 27.2639C250.874 23.9624 251.998 20.08 251.984 16.1121H242.874C242.874 24.8982 236.198 28.2354 229.572 28.2354V0H220.411V56.8879H229.547L229.572 36.8389Z" fill="black"/>
</svg>
