<svg width="24" height="24" viewBox="0 0 24 24" fill="none" xmlns="http://www.w3.org/2000/svg">
<path d="M12 22.586C6.214 22.586 1.457 17.786 1.457 12C1.457 10.8 1.671 9.643 2.057 8.529L8.229 20.529C8.314 20.7 8.4 20.829 8.614 20.829C8.829 20.829 8.914 20.7 9 20.529L11.871 14.143C11.9137 14.057 11.9567 14.014 12 14.014C12.086 14.014 12.086 14.1 12.129 14.143L15.043 20.529C15.129 20.7 15.214 20.829 15.429 20.829C15.643 20.829 15.729 20.7 15.814 20.529L21.986 8.529C22.371 9.6 22.586 10.757 22.586 12C22.543 17.786 17.786 22.586 12 22.586ZM12 9.257C11.914 9.257 11.914 9.171 11.871 9.129L8.571 2.014C10.7873 1.21582 13.2127 1.21582 15.429 2.014L12.129 9.129C12.086 9.171 12.086 9.257 12 9.257ZM8.529 16.971C8.443 16.971 8.443 16.886 8.4 16.843L3 6.47C3.943 4.928 5.314 3.642 6.9 2.742L10.714 10.97C10.8 11.142 10.886 11.185 11.014 11.185H12.986C13.114 11.185 13.2 11.142 13.286 10.97L17.057 2.742C18.643 3.642 20.014 4.928 20.957 6.47L15.6 16.843C15.5567 16.9283 15.5137 16.971 15.471 16.971C15.386 16.971 15.386 16.886 15.343 16.843L13.286 12.3C13.2 12.129 13.114 12.086 12.986 12.086H11.014C10.886 12.086 10.8 12.129 10.714 12.3L8.657 16.843C8.614 16.886 8.614 16.971 8.529 16.971ZM12 24C18.643 24 24 18.643 24 12C24 5.357 18.643 0 12 0C5.357 0 0 5.357 0 12C0 18.643 5.357 24 12 24Z" fill="#011E50"/>
</svg>
